mtllib model.mtl
o cube
usemtl material8
v 0.26562499999999994 0.749718125 0.046875
v 0.26562499999999994 0.749718125 -0.078125
v 0.26562499999999994 0.499718125 0.046875
v 0.26562499999999994 0.499718125 -0.078125
v 0.14062499999999994 0.749718125 -0.078125
v 0.14062499999999994 0.749718125 0.046875
v 0.14062499999999994 0.499718125 -0.078125
v 0.14062499999999994 0.499718125 0.046875
v 0.14062499999999994 0.749718125 -0.078125
v 0.26562499999999994 0.749718125 -0.078125
v 0.14062499999999994 0.749718125 0.046875
v 0.26562499999999994 0.749718125 0.046875
v 0.14062499999999994 0.499718125 0.046875
v 0.26562499999999994 0.499718125 0.046875
v 0.14062499999999994 0.499718125 -0.078125
v 0.26562499999999994 0.499718125 -0.078125
v 0.14062499999999994 0.749718125 0.046875
v 0.26562499999999994 0.749718125 0.046875
v 0.14062499999999994 0.499718125 0.046875
v 0.26562499999999994 0.499718125 0.046875
v 0.26562499999999994 0.749718125 -0.078125
v 0.14062499999999994 0.749718125 -0.078125
v 0.26562499999999994 0.499718125 -0.078125
v 0.14062499999999994 0.499718125 -0.078125
vt 0.140625 0.5546875
vt 0.15625 0.5546875
vt 0.140625 0.5234375
vt 0.15625 0.5234375
vt 0.453125 0.9609375
vt 0.46875 0.9609375
vt 0.453125 0.9296875
vt 0.46875 0.9296875
vt 0.4140625 0.671875
vt 0.3984375 0.671875
vt 0.4140625 0.6875
vt 0.3984375 0.6875
vt 0.46875 0.734375
vt 0.453125 0.734375
vt 0.46875 0.71875
vt 0.453125 0.71875
vt 0.453125 0.9921875
vt 0.46875 0.9921875
vt 0.453125 0.9609375
vt 0.46875 0.9609375
vt 0.125 0.5546875
vt 0.140625 0.5546875
vt 0.125 0.5234375
vt 0.140625 0.5234375
vn 1 0 0
vn 1 0 0
vn 1 0 0
vn 1 0 0
vn -1 0 0
vn -1 0 0
vn -1 0 0
vn -1 0 0
vn 0 1 0
vn 0 1 0
vn 0 1 0
vn 0 1 0
vn 0 -1 0
vn 0 -1 0
vn 0 -1 0
vn 0 -1 0
vn 0 0 1
vn 0 0 1
vn 0 0 1
vn 0 0 1
vn 0 0 -1
vn 0 0 -1
vn 0 0 -1
vn 0 0 -1
f 1/1/1 3/3/3 2/2/2
f 3/3/3 4/4/4 2/2/2
f 5/5/5 7/7/7 6/6/6
f 7/7/7 8/8/8 6/6/6
f 9/9/9 11/11/11 10/10/10
f 11/11/11 12/12/12 10/10/10
f 13/13/13 15/15/15 14/14/14
f 15/15/15 16/16/16 14/14/14
f 17/17/17 19/19/19 18/18/18
f 19/19/19 20/20/20 18/18/18
f 21/21/21 23/23/23 22/22/22
f 23/23/23 24/24/24 22/22/22
o cube_1
usemtl material8
v 0.265625 0.499718125 0.078125
v 0.265625 0.499718125 -0.109375
v 0.265625 0.187218125 0.078125
v 0.265625 0.187218125 -0.109375
v 0.140625 0.499718125 -0.109375
v 0.140625 0.499718125 0.078125
v 0.140625 0.187218125 -0.109375
v 0.140625 0.187218125 0.078125
v 0.140625 0.499718125 -0.109375
v 0.265625 0.499718125 -0.109375
v 0.140625 0.499718125 0.078125
v 0.265625 0.499718125 0.078125
v 0.140625 0.187218125 0.078125
v 0.265625 0.187218125 0.078125
v 0.140625 0.187218125 -0.109375
v 0.265625 0.187218125 -0.109375
v 0.140625 0.499718125 0.078125
v 0.265625 0.499718125 0.078125
v 0.140625 0.187218125 0.078125
v 0.265625 0.187218125 0.078125
v 0.265625 0.499718125 -0.109375
v 0.140625 0.499718125 -0.109375
v 0.265625 0.187218125 -0.109375
v 0.140625 0.187218125 -0.109375
vt 0.03125 0.5703125
vt 0.0546875 0.5703125
vt 0.03125 0.53125
vt 0.0546875 0.53125
vt 0.1640625 0.5703125
vt 0.1875 0.5703125
vt 0.1640625 0.53125
vt 0.1875 0.53125
vt 0.0703125 0.5234375
vt 0.0546875 0.5234375
vt 0.0703125 0.546875
vt 0.0546875 0.546875
vt 0.0859375 0.546875
vt 0.0703125 0.546875
vt 0.0859375 0.5234375
vt 0.0703125 0.5234375
vt 0.203125 0.5703125
vt 0.21875 0.5703125
vt 0.203125 0.53125
vt 0.21875 0.53125
vt 0.1875 0.5703125
vt 0.203125 0.5703125
vt 0.1875 0.53125
vt 0.203125 0.53125
vn 1 0 0
vn 1 0 0
vn 1 0 0
vn 1 0 0
vn -1 0 0
vn -1 0 0
vn -1 0 0
vn -1 0 0
vn 0 1 0
vn 0 1 0
vn 0 1 0
vn 0 1 0
vn 0 -1 0
vn 0 -1 0
vn 0 -1 0
vn 0 -1 0
vn 0 0 1
vn 0 0 1
vn 0 0 1
vn 0 0 1
vn 0 0 -1
vn 0 0 -1
vn 0 0 -1
vn 0 0 -1
f 25/25/25 27/27/27 26/26/26
f 27/27/27 28/28/28 26/26/26
f 29/29/29 31/31/31 30/30/30
f 31/31/31 32/32/32 30/30/30
f 33/33/33 35/35/35 34/34/34
f 35/35/35 36/36/36 34/34/34
f 37/37/37 39/39/39 38/38/38
f 39/39/39 40/40/40 38/38/38
f 41/41/41 43/43/43 42/42/42
f 43/43/43 44/44/44 42/42/42
f 45/45/45 47/47/47 46/46/46
f 47/47/47 48/48/48 46/46/46
o cube_2
usemtl material8
v 0.265625 0.499718125 -0.109375
v 0.265625 0.499718125 -0.234375
v 0.265625 0.374718125 -0.109375
v 0.265625 0.374718125 -0.234375
v 0.203125 0.499718125 -0.234375
v 0.203125 0.499718125 -0.109375
v 0.203125 0.374718125 -0.234375
v 0.203125 0.374718125 -0.109375
v 0.203125 0.499718125 -0.234375
v 0.265625 0.499718125 -0.234375
v 0.203125 0.499718125 -0.109375
v 0.265625 0.499718125 -0.109375
v 0.203125 0.374718125 -0.109375
v 0.265625 0.374718125 -0.109375
v 0.203125 0.374718125 -0.234375
v 0.265625 0.374718125 -0.234375
v 0.203125 0.499718125 -0.109375
v 0.265625 0.499718125 -0.109375
v 0.203125 0.374718125 -0.109375
v 0.265625 0.374718125 -0.109375
v 0.265625 0.499718125 -0.234375
v 0.203125 0.499718125 -0.234375
v 0.265625 0.374718125 -0.234375
v 0.203125 0.374718125 -0.234375
vt 0.453125 0.71875
vt 0.46875 0.71875
vt 0.453125 0.703125
vt 0.46875 0.703125
vt 0.453125 0.703125
vt 0.46875 0.703125
vt 0.453125 0.6875
vt 0.46875 0.6875
vt 0.0703125 0.640625
vt 0.0625 0.640625
vt 0.0703125 0.65625
vt 0.0625 0.65625
vt 0.2265625 0.5703125
vt 0.21875 0.5703125
vt 0.2265625 0.5546875
vt 0.21875 0.5546875
vt 0.0625 0.671875
vt 0.0703125 0.671875
vt 0.0625 0.65625
vt 0.0703125 0.65625
vt 0.0625 0.6875
vt 0.0703125 0.6875
vt 0.0625 0.671875
vt 0.0703125 0.671875
vn 1 0 0
vn 1 0 0
vn 1 0 0
vn 1 0 0
vn -1 0 0
vn -1 0 0
vn -1 0 0
vn -1 0 0
vn 0 1 0
vn 0 1 0
vn 0 1 0
vn 0 1 0
vn 0 -1 0
vn 0 -1 0
vn 0 -1 0
vn 0 -1 0
vn 0 0 1
vn 0 0 1
vn 0 0 1
vn 0 0 1
vn 0 0 -1
vn 0 0 -1
vn 0 0 -1
vn 0 0 -1
f 49/49/49 51/51/51 50/50/50
f 51/51/51 52/52/52 50/50/50
f 53/53/53 55/55/55 54/54/54
f 55/55/55 56/56/56 54/54/54
f 57/57/57 59/59/59 58/58/58
f 59/59/59 60/60/60 58/58/58
f 61/61/61 63/63/63 62/62/62
f 63/63/63 64/64/64 62/62/62
f 65/65/65 67/67/67 66/66/66
f 67/67/67 68/68/68 66/66/66
f 69/69/69 71/71/71 70/70/70
f 71/71/71 72/72/72 70/70/70
o cube_3
usemtl material8
v 0.12699115575047093 1.4994233609698897 0.109375
v 0.12699115575047093 1.4994233609698897 -0.828125
v 0.14062221430213842 1.1872207917255593 0.109375
v 0.14062221430213842 1.1872207917255593 -0.828125
v -0.37253295504045797 1.4776136672872218 -0.828125
v -0.37253295504045797 1.4776136672872218 0.109375
v -0.35890189648879045 1.1654110980428913 -0.828125
v -0.35890189648879045 1.1654110980428913 0.109375
v -0.37253295504045797 1.4776136672872218 -0.828125
v 0.12699115575047093 1.4994233609698897 -0.828125
v -0.37253295504045797 1.4776136672872218 0.109375
v 0.12699115575047093 1.4994233609698897 0.109375
v -0.35890189648879045 1.1654110980428913 0.109375
v 0.14062221430213842 1.1872207917255593 0.109375
v -0.35890189648879045 1.1654110980428913 -0.828125
v 0.14062221430213842 1.1872207917255593 -0.828125
v -0.37253295504045797 1.4776136672872218 0.109375
v 0.12699115575047093 1.4994233609698897 0.109375
v -0.35890189648879045 1.1654110980428913 0.109375
v 0.14062221430213842 1.1872207917255593 0.109375
v 0.12699115575047093 1.4994233609698897 -0.828125
v -0.37253295504045797 1.4776136672872218 -0.828125
v 0.14062221430213842 1.1872207917255593 -0.828125
v -0.35890189648879045 1.1654110980428913 -0.828125
vt 0.359375 0.8125
vt 0.4765625 0.8125
vt 0.359375 0.7734375
vt 0.4765625 0.7734375
vt 0.359375 0.7734375
vt 0.4765625 0.7734375
vt 0.359375 0.734375
vt 0.4765625 0.734375
vt 0.2265625 0.6171875
vt 0.1640625 0.6171875
vt 0.2265625 0.734375
vt 0.1640625 0.734375
vt 0.359375 0.90625
vt 0.296875 0.90625
vt 0.359375 0.7890625
vt 0.296875 0.7890625
vt 0.390625 0.9609375
vt 0.453125 0.9609375
vt 0.390625 0.921875
vt 0.453125 0.921875
vt 0.390625 1
vt 0.453125 1
vt 0.390625 0.9609375
vt 0.453125 0.9609375
vn 0.9990482215818578 0.043619387365336 0
vn 0.9990482215818578 0.043619387365336 0
vn 0.9990482215818578 0.043619387365336 0
vn 0.9990482215818578 0.043619387365336 0
vn -0.9990482215818578 -0.043619387365336 0
vn -0.9990482215818578 -0.043619387365336 0
vn -0.9990482215818578 -0.043619387365336 0
vn -0.9990482215818578 -0.043619387365336 0
vn -0.043619387365336 0.9990482215818578 0
vn -0.043619387365336 0.9990482215818578 0
vn -0.043619387365336 0.9990482215818578 0
vn -0.043619387365336 0.9990482215818578 0
vn 0.043619387365336 -0.9990482215818578 0
vn 0.043619387365336 -0.9990482215818578 0
vn 0.043619387365336 -0.9990482215818578 0
vn 0.043619387365336 -0.9990482215818578 0
vn 0 0 1
vn 0 0 1
vn 0 0 1
vn 0 0 1
vn 0 0 -1
vn 0 0 -1
vn 0 0 -1
vn 0 0 -1
f 73/73/73 75/75/75 74/74/74
f 75/75/75 76/76/76 74/74/74
f 77/77/77 79/79/79 78/78/78
f 79/79/79 80/80/80 78/78/78
f 81/81/81 83/83/83 82/82/82
f 83/83/83 84/84/84 82/82/82
f 85/85/85 87/87/87 86/86/86
f 87/87/87 88/88/88 86/86/86
f 89/89/89 91/91/91 90/90/90
f 91/91/91 92/92/92 90/90/90
f 93/93/93 95/95/95 94/94/94
f 95/95/95 96/96/96 94/94/94
o cube_4
usemtl material8
v 0.16917596949032881 1.251089573431916 0.14068752527236938
v 0.16917596949032881 1.251089573431916 -0.8594375252723694
v 0.17190763322889546 1.1885241876066353 0.14068752527236938
v 0.17190763322889546 1.1885241876066353 -0.8594375252723694
v -0.3929135345693703 1.2265482156856917 -0.8594375252723694
v -0.3929135345693703 1.2265482156856917 0.14068752527236938
v -0.39018187083080363 1.1639828298604107 -0.8594375252723694
v -0.39018187083080363 1.1639828298604107 0.14068752527236938
v -0.3929135345693703 1.2265482156856917 -0.8594375252723694
v 0.16917596949032881 1.251089573431916 -0.8594375252723694
v -0.3929135345693703 1.2265482156856917 0.14068752527236938
v 0.16917596949032881 1.251089573431916 0.14068752527236938
v -0.39018187083080363 1.1639828298604107 0.14068752527236938
v 0.17190763322889546 1.1885241876066353 0.14068752527236938
v -0.39018187083080363 1.1639828298604107 -0.8594375252723694
v 0.17190763322889546 1.1885241876066353 -0.8594375252723694
v -0.3929135345693703 1.2265482156856917 0.14068752527236938
v 0.16917596949032881 1.251089573431916 0.14068752527236938
v -0.39018187083080363 1.1639828298604107 0.14068752527236938
v 0.17190763322889546 1.1885241876066353 0.14068752527236938
v 0.16917596949032881 1.251089573431916 -0.8594375252723694
v -0.3929135345693703 1.2265482156856917 -0.8594375252723694
v 0.17190763322889546 1.1885241876066353 -0.8594375252723694
v -0.39018187083080363 1.1639828298604107 -0.8594375252723694
vt 0.390625 0.921875
vt 0.515625 0.921875
vt 0.390625 0.9140625
vt 0.515625 0.9140625
vt 0.390625 0.9140625
vt 0.515625 0.9140625
vt 0.390625 0.90625
vt 0.515625 0.90625
vt 0.0703125 0.6875
vt 0 0.6875
vt 0.0703125 0.8125
vt 0 0.8125
vt 0.296875 1
vt 0.2265625 1
vt 0.296875 0.875
vt 0.2265625 0.875
vt 0.0546875 0.5546875
vt 0.125 0.5546875
vt 0.0546875 0.546875
vt 0.125 0.546875
vt 0.0546875 0.5625
vt 0.125 0.5625
vt 0.0546875 0.5546875
vt 0.125 0.5546875
vn 0.9990482215818578 0.043619387365336 0
vn 0.9990482215818578 0.043619387365336 0
vn 0.9990482215818578 0.043619387365336 0
vn 0.9990482215818578 0.043619387365336 0
vn -0.9990482215818578 -0.043619387365336 0
vn -0.9990482215818578 -0.043619387365336 0
vn -0.9990482215818578 -0.043619387365336 0
vn -0.9990482215818578 -0.043619387365336 0
vn -0.043619387365336 0.9990482215818578 0
vn -0.043619387365336 0.9990482215818578 0
vn -0.043619387365336 0.9990482215818578 0
vn -0.043619387365336 0.9990482215818578 0
vn 0.043619387365336 -0.9990482215818578 0
vn 0.043619387365336 -0.9990482215818578 0
vn 0.043619387365336 -0.9990482215818578 0
vn 0.043619387365336 -0.9990482215818578 0
vn 0 0 1
vn 0 0 1
vn 0 0 1
vn 0 0 1
vn 0 0 -1
vn 0 0 -1
vn 0 0 -1
vn 0 0 -1
f 97/97/97 99/99/99 98/98/98
f 99/99/99 100/100/100 98/98/98
f 101/101/101 103/103/103 102/102/102
f 103/103/103 104/104/104 102/102/102
f 105/105/105 107/107/107 106/106/106
f 107/107/107 108/108/108 106/106/106
f 109/109/109 111/111/111 110/110/110
f 111/111/111 112/112/112 110/110/110
f 113/113/113 115/115/115 114/114/114
f 115/115/115 116/116/116 114/114/114
f 117/117/117 119/119/119 118/118/118
f 119/119/119 120/120/120 118/118/118
o cube_5
usemtl material8
v -0.6127532694497552 1.2481670219748562 -0.234375
v -0.6127532694497552 1.2481670219748562 -0.359375
v -0.6073008460290882 1.123285994277124 -0.234375
v -0.6073008460290882 1.123285994277124 -0.359375
v -0.6751937832986213 1.2454408102645227 -0.359375
v -0.6751937832986213 1.2454408102645227 -0.234375
v -0.6697413598779542 1.1205597825667906 -0.359375
v -0.6697413598779542 1.1205597825667906 -0.234375
v -0.6751937832986213 1.2454408102645227 -0.359375
v -0.6127532694497552 1.2481670219748562 -0.359375
v -0.6751937832986213 1.2454408102645227 -0.234375
v -0.6127532694497552 1.2481670219748562 -0.234375
v -0.6697413598779542 1.1205597825667906 -0.234375
v -0.6073008460290882 1.123285994277124 -0.234375
v -0.6697413598779542 1.1205597825667906 -0.359375
v -0.6073008460290882 1.123285994277124 -0.359375
v -0.6751937832986213 1.2454408102645227 -0.234375
v -0.6127532694497552 1.2481670219748562 -0.234375
v -0.6697413598779542 1.1205597825667906 -0.234375
v -0.6073008460290882 1.123285994277124 -0.234375
v -0.6127532694497552 1.2481670219748562 -0.359375
v -0.6751937832986213 1.2454408102645227 -0.359375
v -0.6073008460290882 1.123285994277124 -0.359375
v -0.6697413598779542 1.1205597825667906 -0.359375
vt 0.3828125 0.546875
vt 0.3984375 0.546875
vt 0.3828125 0.53125
vt 0.3984375 0.53125
vt 0.453125 0.609375
vt 0.46875 0.609375
vt 0.453125 0.59375
vt 0.46875 0.59375
vt 0.125 0.5234375
vt 0.1171875 0.5234375
vt 0.125 0.5390625
vt 0.1171875 0.5390625
vt 0.1640625 0.5390625
vt 0.15625 0.5390625
vt 0.1640625 0.5234375
vt 0.15625 0.5234375
vt 0.21875 0.5546875
vt 0.2265625 0.5546875
vt 0.21875 0.5390625
vt 0.2265625 0.5390625
vt 0.15625 0.5546875
vt 0.1640625 0.5546875
vt 0.15625 0.5390625
vt 0.1640625 0.5390625
vn 0.9990482215818578 0.043619387365336 0
vn 0.9990482215818578 0.043619387365336 0
vn 0.9990482215818578 0.043619387365336 0
vn 0.9990482215818578 0.043619387365336 0
vn -0.9990482215818578 -0.043619387365336 0
vn -0.9990482215818578 -0.043619387365336 0
vn -0.9990482215818578 -0.043619387365336 0
vn -0.9990482215818578 -0.043619387365336 0
vn -0.043619387365336 0.9990482215818578 0
vn -0.043619387365336 0.9990482215818578 0
vn -0.043619387365336 0.9990482215818578 0
vn -0.043619387365336 0.9990482215818578 0
vn 0.043619387365336 -0.9990482215818578 0
vn 0.043619387365336 -0.9990482215818578 0
vn 0.043619387365336 -0.9990482215818578 0
vn 0.043619387365336 -0.9990482215818578 0
vn 0 0 1
vn 0 0 1
vn 0 0 1
vn 0 0 1
vn 0 0 -1
vn 0 0 -1
vn 0 0 -1
vn 0 0 -1
f 121/121/121 123/123/123 122/122/122
f 123/123/123 124/124/124 122/122/122
f 125/125/125 127/127/127 126/126/126
f 127/127/127 128/128/128 126/126/126
f 129/129/129 131/131/131 130/130/130
f 131/131/131 132/132/132 130/130/130
f 133/133/133 135/135/135 134/134/134
f 135/135/135 136/136/136 134/134/134
f 137/137/137 139/139/139 138/138/138
f 139/139/139 140/140/140 138/138/138
f 141/141/141 143/143/143 142/142/142
f 143/143/143 144/144/144 142/142/142
o cube_6
usemtl material8
v -0.36162810819912405 1.2278516118917573 -0.265625
v -0.36162810819912405 1.2278516118917573 -0.328125
v -0.35890189648879056 1.1654110980428911 -0.265625
v -0.35890189648879056 1.1654110980428911 -0.328125
v -0.6113901635945884 1.216946765050423 -0.328125
v -0.6113901635945884 1.216946765050423 -0.265625
v -0.6086639518842549 1.1545062512015571 -0.328125
v -0.6086639518842549 1.1545062512015571 -0.265625
v -0.6113901635945884 1.216946765050423 -0.328125
v -0.36162810819912405 1.2278516118917573 -0.328125
v -0.6113901635945884 1.216946765050423 -0.265625
v -0.36162810819912405 1.2278516118917573 -0.265625
v -0.6086639518842549 1.1545062512015571 -0.265625
v -0.35890189648879056 1.1654110980428911 -0.265625
v -0.6086639518842549 1.1545062512015571 -0.328125
v -0.35890189648879056 1.1654110980428911 -0.328125
v -0.6113901635945884 1.216946765050423 -0.265625
v -0.36162810819912405 1.2278516118917573 -0.265625
v -0.6086639518842549 1.1545062512015571 -0.265625
v -0.35890189648879056 1.1654110980428911 -0.265625
v -0.36162810819912405 1.2278516118917573 -0.328125
v -0.6113901635945884 1.216946765050423 -0.328125
v -0.35890189648879056 1.1654110980428911 -0.328125
v -0.6086639518842549 1.1545062512015571 -0.328125
vt 0.0546875 0.5703125
vt 0.0625 0.5703125
vt 0.0546875 0.5625
vt 0.0625 0.5625
vt 0.4609375 0.671875
vt 0.46875 0.671875
vt 0.4609375 0.6640625
vt 0.46875 0.6640625
vt 0.484375 0.578125
vt 0.453125 0.578125
vt 0.484375 0.5859375
vt 0.453125 0.5859375
vt 0.484375 0.578125
vt 0.453125 0.578125
vt 0.484375 0.5703125
vt 0.453125 0.5703125
vt 0.453125 0.59375
vt 0.484375 0.59375
vt 0.453125 0.5859375
vt 0.484375 0.5859375
vt 0.3984375 0.546875
vt 0.4296875 0.546875
vt 0.3984375 0.5390625
vt 0.4296875 0.5390625
vn 0.9990482215818578 0.043619387365336 0
vn 0.9990482215818578 0.043619387365336 0
vn 0.9990482215818578 0.043619387365336 0
vn 0.9990482215818578 0.043619387365336 0
vn -0.9990482215818578 -0.043619387365336 0
vn -0.9990482215818578 -0.043619387365336 0
vn -0.9990482215818578 -0.043619387365336 0
vn -0.9990482215818578 -0.043619387365336 0
vn -0.043619387365336 0.9990482215818578 0
vn -0.043619387365336 0.9990482215818578 0
vn -0.043619387365336 0.9990482215818578 0
vn -0.043619387365336 0.9990482215818578 0
vn 0.043619387365336 -0.9990482215818578 0
vn 0.043619387365336 -0.9990482215818578 0
vn 0.043619387365336 -0.9990482215818578 0
vn 0.043619387365336 -0.9990482215818578 0
vn 0 0 1
vn 0 0 1
vn 0 0 1
vn 0 0 1
vn 0 0 -1
vn 0 0 -1
vn 0 0 -1
vn 0 0 -1
f 145/145/145 147/147/147 146/146/146
f 147/147/147 148/148/148 146/146/146
f 149/149/149 151/151/151 150/150/150
f 151/151/151 152/152/152 150/150/150
f 153/153/153 155/155/155 154/154/154
f 155/155/155 156/156/156 154/154/154
f 157/157/157 159/159/159 158/158/158
f 159/159/159 160/160/160 158/158/158
f 161/161/161 163/163/163 162/162/162
f 163/163/163 164/164/164 162/162/162
f 165/165/165 167/167/167 166/166/166
f 167/167/167 168/168/168 166/166/166
o cube_7
usemtl material8
v 0.11336009719880336 1.8116259302142201 0.109375
v 0.11336009719880336 1.8116259302142201 -0.265625
v 0.12699115575047082 1.4994233609698897 0.109375
v 0.12699115575047082 1.4994233609698897 -0.265625
v -0.1364019581966611 1.8007210833728862 -0.265625
v -0.1364019581966611 1.8007210833728862 0.109375
v -0.12277089964499359 1.4885185141285557 -0.265625
v -0.12277089964499359 1.4885185141285557 0.109375
v -0.1364019581966611 1.8007210833728862 -0.265625
v 0.11336009719880336 1.8116259302142201 -0.265625
v -0.1364019581966611 1.8007210833728862 0.109375
v 0.11336009719880336 1.8116259302142201 0.109375
v -0.12277089964499359 1.4885185141285557 0.109375
v 0.12699115575047082 1.4994233609698897 0.109375
v -0.12277089964499359 1.4885185141285557 -0.265625
v 0.12699115575047082 1.4994233609698897 -0.265625
v -0.1364019581966611 1.8007210833728862 0.109375
v 0.11336009719880336 1.8116259302142201 0.109375
v -0.12277089964499359 1.4885185141285557 0.109375
v 0.12699115575047082 1.4994233609698897 0.109375
v 0.11336009719880336 1.8116259302142201 -0.265625
v -0.1364019581966611 1.8007210833728862 -0.265625
v 0.12699115575047082 1.4994233609698897 -0.265625
v -0.12277089964499359 1.4885185141285557 -0.265625
vt 0.4140625 0.6875
vt 0.4609375 0.6875
vt 0.4140625 0.6484375
vt 0.4609375 0.6484375
vt 0.4140625 0.6484375
vt 0.4609375 0.6484375
vt 0.4140625 0.609375
vt 0.4609375 0.609375
vt 0.453125 0.6875
vt 0.421875 0.6875
vt 0.453125 0.734375
vt 0.421875 0.734375
vt 0.3203125 0.578125
vt 0.2890625 0.578125
vt 0.3203125 0.53125
vt 0.2890625 0.53125
vt 0.3515625 0.578125
vt 0.3828125 0.578125
vt 0.3515625 0.5390625
vt 0.3828125 0.5390625
vt 0.3203125 0.578125
vt 0.3515625 0.578125
vt 0.3203125 0.5390625
vt 0.3515625 0.5390625
vn 0.9990482215818578 0.043619387365336 0
vn 0.9990482215818578 0.043619387365336 0
vn 0.9990482215818578 0.043619387365336 0
vn 0.9990482215818578 0.043619387365336 0
vn -0.9990482215818578 -0.043619387365336 0
vn -0.9990482215818578 -0.043619387365336 0
vn -0.9990482215818578 -0.043619387365336 0
vn -0.9990482215818578 -0.043619387365336 0
vn -0.043619387365336 0.9990482215818578 0
vn -0.043619387365336 0.9990482215818578 0
vn -0.043619387365336 0.9990482215818578 0
vn -0.043619387365336 0.9990482215818578 0
vn 0.043619387365336 -0.9990482215818578 0
vn 0.043619387365336 -0.9990482215818578 0
vn 0.043619387365336 -0.9990482215818578 0
vn 0.043619387365336 -0.9990482215818578 0
vn 0 0 1
vn 0 0 1
vn 0 0 1
vn 0 0 1
vn 0 0 -1
vn 0 0 -1
vn 0 0 -1
vn 0 0 -1
f 169/169/169 171/171/171 170/170/170
f 171/171/171 172/172/172 170/170/170
f 173/173/173 175/175/175 174/174/174
f 175/175/175 176/176/176 174/174/174
f 177/177/177 179/179/179 178/178/178
f 179/179/179 180/180/180 178/178/178
f 181/181/181 183/183/183 182/182/182
f 183/183/183 184/184/184 182/182/182
f 185/185/185 187/187/187 186/186/186
f 187/187/187 188/188/188 186/186/186
f 189/189/189 191/191/191 190/190/190
f 191/191/191 192/192/192 190/190/190
o cube_8
usemtl material8
v -0.13497914366736258 1.7695660182247344 0.046937495470047
v -0.13497914366736258 1.7695660182247344 -0.20318752527236938
v -0.12406884349783641 1.519679061078898 0.046937495470047
v -0.12406884349783641 1.519679061078898 -0.20318752527236938
v -0.13510402308726663 1.7695605658715114 -0.20318752527236938
v -0.13510402308726663 1.7695605658715114 0.046937495470047
v -0.12419372291774046 1.519673608725675 -0.20318752527236938
v -0.12419372291774046 1.519673608725675 0.046937495470047
v -0.13510402308726663 1.7695605658715114 -0.20318752527236938
v -0.13497914366736258 1.7695660182247344 -0.20318752527236938
v -0.13510402308726663 1.7695605658715114 0.046937495470047
v -0.13497914366736258 1.7695660182247344 0.046937495470047
v -0.12419372291774046 1.519673608725675 0.046937495470047
v -0.12406884349783641 1.519679061078898 0.046937495470047
v -0.12419372291774046 1.519673608725675 -0.20318752527236938
v -0.12406884349783641 1.519679061078898 -0.20318752527236938
v -0.13510402308726663 1.7695605658715114 0.046937495470047
v -0.13497914366736258 1.7695660182247344 0.046937495470047
v -0.12419372291774046 1.519673608725675 0.046937495470047
v -0.12406884349783641 1.519679061078898 0.046937495470047
v -0.13497914366736258 1.7695660182247344 -0.20318752527236938
v -0.13510402308726663 1.7695605658715114 -0.20318752527236938
v -0.12406884349783641 1.519679061078898 -0.20318752527236938
v -0.12419372291774046 1.519673608725675 -0.20318752527236938
vt 0.3828125 0.578125
vt 0.4140625 0.578125
vt 0.3828125 0.546875
vt 0.4140625 0.546875
vt 0 0.5703125
vt 0.03125 0.5703125
vt 0 0.5390625
vt 0.03125 0.5390625
vt 0 0.96875
vt 0 0.96875
vt 0 1
vt 0 1
vt 0 1
vt 0 1
vt 0 0.96875
vt 0 0.96875
vt 0 1
vt 0 1
vt 0 0.96875
vt 0 0.96875
vt 0 1
vt 0 1
vt 0 0.96875
vt 0 0.96875
vn 0.9990482215818578 0.043619387365336 0
vn 0.9990482215818578 0.043619387365336 0
vn 0.9990482215818578 0.043619387365336 0
vn 0.9990482215818578 0.043619387365336 0
vn -0.9990482215818578 -0.043619387365336 0
vn -0.9990482215818578 -0.043619387365336 0
vn -0.9990482215818578 -0.043619387365336 0
vn -0.9990482215818578 -0.043619387365336 0
vn -0.043619387365336 0.9990482215818578 0
vn -0.043619387365336 0.9990482215818578 0
vn -0.043619387365336 0.9990482215818578 0
vn -0.043619387365336 0.9990482215818578 0
vn 0.043619387365336 -0.9990482215818578 0
vn 0.043619387365336 -0.9990482215818578 0
vn 0.043619387365336 -0.9990482215818578 0
vn 0.043619387365336 -0.9990482215818578 0
vn 0 0 1
vn 0 0 1
vn 0 0 1
vn 0 0 1
vn 0 0 -1
vn 0 0 -1
vn 0 0 -1
vn 0 0 -1
f 193/193/193 195/195/195 194/194/194
f 195/195/195 196/196/196 194/194/194
f 197/197/197 199/199/199 198/198/198
f 199/199/199 200/200/200 198/198/198
f 201/201/201 203/203/203 202/202/202
f 203/203/203 204/204/204 202/202/202
f 205/205/205 207/207/207 206/206/206
f 207/207/207 208/208/208 206/206/206
f 209/209/209 211/211/211 210/210/210
f 211/211/211 212/212/212 210/210/210
f 213/213/213 215/215/215 214/214/214
f 215/215/215 216/216/216 214/214/214
o cube_9
usemtl material8
v -0.13351971583546496 1.7389767888758403 0.016313726902008163
v -0.13351971583546496 1.7389767888758403 -0.17143625497817983
v -0.12533017664799823 1.5514055033764125 0.016313726902008163
v -0.12533017664799823 1.5514055033764125 -0.17143625497817983
v -0.13389186052626326 1.7389605406877415 -0.17143625497817983
v -0.13389186052626326 1.7389605406877415 0.016313726902008163
v -0.12570232133879652 1.5513892551883137 -0.17143625497817983
v -0.12570232133879652 1.5513892551883137 0.016313726902008163
v -0.13389186052626326 1.7389605406877415 -0.17143625497817983
v -0.13351971583546496 1.7389767888758403 -0.17143625497817983
v -0.13389186052626326 1.7389605406877415 0.016313726902008163
v -0.13351971583546496 1.7389767888758403 0.016313726902008163
v -0.12570232133879652 1.5513892551883137 0.016313726902008163
v -0.12533017664799823 1.5514055033764125 0.016313726902008163
v -0.12570232133879652 1.5513892551883137 -0.17143625497817983
v -0.12533017664799823 1.5514055033764125 -0.17143625497817983
v -0.13389186052626326 1.7389605406877415 0.016313726902008163
v -0.13351971583546496 1.7389767888758403 0.016313726902008163
v -0.12570232133879652 1.5513892551883137 0.016313726902008163
v -0.12533017664799823 1.5514055033764125 0.016313726902008163
v -0.13351971583546496 1.7389767888758403 -0.17143625497817983
v -0.13389186052626326 1.7389605406877415 -0.17143625497817983
v -0.12533017664799823 1.5514055033764125 -0.17143625497817983
v -0.12570232133879652 1.5513892551883137 -0.17143625497817983
vt 0.4296875 0.546875
vt 0.4453125 0.546875
vt 0.4296875 0.53125
vt 0.4453125 0.53125
vt 0.4453125 0.546875
vt 0.4609375 0.546875
vt 0.4453125 0.53125
vt 0.4609375 0.53125
vt 0 0.984375
vt 0 0.984375
vt 0 1
vt 0 1
vt 0 1
vt 0 1
vt 0 0.984375
vt 0 0.984375
vt 0 1
vt 0 1
vt 0 0.984375
vt 0 0.984375
vt 0 1
vt 0 1
vt 0 0.984375
vt 0 0.984375
vn 0.9990482215818578 0.043619387365336 0
vn 0.9990482215818578 0.043619387365336 0
vn 0.9990482215818578 0.043619387365336 0
vn 0.9990482215818578 0.043619387365336 0
vn -0.9990482215818578 -0.043619387365336 0
vn -0.9990482215818578 -0.043619387365336 0
vn -0.9990482215818578 -0.043619387365336 0
vn -0.9990482215818578 -0.043619387365336 0
vn -0.043619387365336 0.9990482215818578 0
vn -0.043619387365336 0.9990482215818578 0
vn -0.043619387365336 0.9990482215818578 0
vn -0.043619387365336 0.9990482215818578 0
vn 0.043619387365336 -0.9990482215818578 0
vn 0.043619387365336 -0.9990482215818578 0
vn 0.043619387365336 -0.9990482215818578 0
vn 0.043619387365336 -0.9990482215818578 0
vn 0 0 1
vn 0 0 1
vn 0 0 1
vn 0 0 1
vn 0 0 -1
vn 0 0 -1
vn 0 0 -1
vn 0 0 -1
f 217/217/217 219/219/219 218/218/218
f 219/219/219 220/220/220 218/218/218
f 221/221/221 223/223/223 222/222/222
f 223/223/223 224/224/224 222/222/222
f 225/225/225 227/227/227 226/226/226
f 227/227/227 228/228/228 226/226/226
f 229/229/229 231/231/231 230/230/230
f 231/231/231 232/232/232 230/230/230
f 233/233/233 235/235/235 234/234/234
f 235/235/235 236/236/236 234/234/234
f 237/237/237 239/239/239 238/238/238
f 239/239/239 240/240/240 238/238/238
o cube_10
usemtl material8
v 0.1133600971988033 1.8116259302142206 -0.453125
v 0.1133600971988033 1.8116259302142206 -0.828125
v 0.12699115575047076 1.49942336096989 -0.453125
v 0.12699115575047076 1.49942336096989 -0.828125
v -0.13640195819666115 1.8007210833728866 -0.828125
v -0.13640195819666115 1.8007210833728866 -0.453125
v -0.12277089964499364 1.488518514128556 -0.828125
v -0.12277089964499364 1.488518514128556 -0.453125
v -0.13640195819666115 1.8007210833728866 -0.828125
v 0.1133600971988033 1.8116259302142206 -0.828125
v -0.13640195819666115 1.8007210833728866 -0.453125
v 0.1133600971988033 1.8116259302142206 -0.453125
v -0.12277089964499364 1.488518514128556 -0.453125
v 0.12699115575047076 1.49942336096989 -0.453125
v -0.12277089964499364 1.488518514128556 -0.828125
v 0.12699115575047076 1.49942336096989 -0.828125
v -0.13640195819666115 1.8007210833728866 -0.453125
v 0.1133600971988033 1.8116259302142206 -0.453125
v -0.12277089964499364 1.488518514128556 -0.453125
v 0.12699115575047076 1.49942336096989 -0.453125
v 0.1133600971988033 1.8116259302142206 -0.828125
v -0.13640195819666115 1.8007210833728866 -0.828125
v 0.12699115575047076 1.49942336096989 -0.828125
v -0.12277089964499364 1.488518514128556 -0.828125
vt 0.4609375 0.6875
vt 0.4140625 0.6875
vt 0.4609375 0.6484375
vt 0.4140625 0.6484375
vt 0.4609375 0.6484375
vt 0.4140625 0.6484375
vt 0.4609375 0.609375
vt 0.4140625 0.609375
vt 0.453125 0.734375
vt 0.421875 0.734375
vt 0.453125 0.6875
vt 0.421875 0.6875
vt 0.3203125 0.53125
vt 0.2890625 0.53125
vt 0.3203125 0.578125
vt 0.2890625 0.578125
vt 0.3515625 0.578125
vt 0.3203125 0.578125
vt 0.3515625 0.5390625
vt 0.3203125 0.5390625
vt 0.3828125 0.578125
vt 0.3515625 0.578125
vt 0.3828125 0.5390625
vt 0.3515625 0.5390625
vn 0.9990482215818578 0.043619387365336 0
vn 0.9990482215818578 0.043619387365336 0
vn 0.9990482215818578 0.043619387365336 0
vn 0.9990482215818578 0.043619387365336 0
vn -0.9990482215818578 -0.043619387365336 0
vn -0.9990482215818578 -0.043619387365336 0
vn -0.9990482215818578 -0.043619387365336 0
vn -0.9990482215818578 -0.043619387365336 0
vn -0.043619387365336 0.9990482215818578 0
vn -0.043619387365336 0.9990482215818578 0
vn -0.043619387365336 0.9990482215818578 0
vn -0.043619387365336 0.9990482215818578 0
vn 0.043619387365336 -0.9990482215818578 0
vn 0.043619387365336 -0.9990482215818578 0
vn 0.043619387365336 -0.9990482215818578 0
vn 0.043619387365336 -0.9990482215818578 0
vn 0 0 1
vn 0 0 1
vn 0 0 1
vn 0 0 1
vn 0 0 -1
vn 0 0 -1
vn 0 0 -1
vn 0 0 -1
f 241/241/241 243/243/243 242/242/242
f 243/243/243 244/244/244 242/242/242
f 245/245/245 247/247/247 246/246/246
f 247/247/247 248/248/248 246/246/246
f 249/249/249 251/251/251 250/250/250
f 251/251/251 252/252/252 250/250/250
f 253/253/253 255/255/255 254/254/254
f 255/255/255 256/256/256 254/254/254
f 257/257/257 259/259/259 258/258/258
f 259/259/259 260/260/260 258/258/258
f 261/261/261 263/263/263 262/262/262
f 263/263/263 264/264/264 262/262/262
o cube_11
usemtl material8
v -0.13497914366736258 1.7695660182247344 -0.5155624747276306
v -0.13497914366736258 1.7695660182247344 -0.765687495470047
v -0.12406884349783641 1.5196790610788982 -0.5155624747276306
v -0.12406884349783641 1.5196790610788982 -0.765687495470047
v -0.13510402308726663 1.7695605658715117 -0.765687495470047
v -0.13510402308726663 1.7695605658715117 -0.5155624747276306
v -0.12419372291774046 1.5196736087256753 -0.765687495470047
v -0.12419372291774046 1.5196736087256753 -0.5155624747276306
v -0.13510402308726663 1.7695605658715117 -0.765687495470047
v -0.13497914366736258 1.7695660182247344 -0.765687495470047
v -0.13510402308726663 1.7695605658715117 -0.5155624747276306
v -0.13497914366736258 1.7695660182247344 -0.5155624747276306
v -0.12419372291774046 1.5196736087256753 -0.5155624747276306
v -0.12406884349783641 1.5196790610788982 -0.5155624747276306
v -0.12419372291774046 1.5196736087256753 -0.765687495470047
v -0.12406884349783641 1.5196790610788982 -0.765687495470047
v -0.13510402308726663 1.7695605658715117 -0.5155624747276306
v -0.13497914366736258 1.7695660182247344 -0.5155624747276306
v -0.12419372291774046 1.5196736087256753 -0.5155624747276306
v -0.12406884349783641 1.5196790610788982 -0.5155624747276306
v -0.13497914366736258 1.7695660182247344 -0.765687495470047
v -0.13510402308726663 1.7695605658715117 -0.765687495470047
v -0.12406884349783641 1.5196790610788982 -0.765687495470047
v -0.12419372291774046 1.5196736087256753 -0.765687495470047
vt 0.4140625 0.578125
vt 0.3828125 0.578125
vt 0.4140625 0.546875
vt 0.3828125 0.546875
vt 0.03125 0.5703125
vt 0 0.5703125
vt 0.03125 0.5390625
vt 0 0.5390625
vt 0 1
vt 0 1
vt 0 0.96875
vt 0 0.96875
vt 0 0.96875
vt 0 0.96875
vt 0 1
vt 0 1
vt 0 1
vt 0 1
vt 0 0.96875
vt 0 0.96875
vt 0 1
vt 0 1
vt 0 0.96875
vt 0 0.96875
vn 0.9990482215818578 0.043619387365336 0
vn 0.9990482215818578 0.043619387365336 0
vn 0.9990482215818578 0.043619387365336 0
vn 0.9990482215818578 0.043619387365336 0
vn -0.9990482215818578 -0.043619387365336 0
vn -0.9990482215818578 -0.043619387365336 0
vn -0.9990482215818578 -0.043619387365336 0
vn -0.9990482215818578 -0.043619387365336 0
vn -0.043619387365336 0.9990482215818578 0
vn -0.043619387365336 0.9990482215818578 0
vn -0.043619387365336 0.9990482215818578 0
vn -0.043619387365336 0.9990482215818578 0
vn 0.043619387365336 -0.9990482215818578 0
vn 0.043619387365336 -0.9990482215818578 0
vn 0.043619387365336 -0.9990482215818578 0
vn 0.043619387365336 -0.9990482215818578 0
vn 0 0 1
vn 0 0 1
vn 0 0 1
vn 0 0 1
vn 0 0 -1
vn 0 0 -1
vn 0 0 -1
vn 0 0 -1
f 265/265/265 267/267/267 266/266/266
f 267/267/267 268/268/268 266/266/266
f 269/269/269 271/271/271 270/270/270
f 271/271/271 272/272/272 270/270/270
f 273/273/273 275/275/275 274/274/274
f 275/275/275 276/276/276 274/274/274
f 277/277/277 279/279/279 278/278/278
f 279/279/279 280/280/280 278/278/278
f 281/281/281 283/283/283 282/282/282
f 283/283/283 284/284/284 282/282/282
f 285/285/285 287/287/287 286/286/286
f 287/287/287 288/288/288 286/286/286
o cube_12
usemtl material8
v -0.13351971583546512 1.7389767888758405 -0.5473137450218202
v -0.13351971583546512 1.7389767888758405 -0.7350637269020082
v -0.1253301766479984 1.5514055033764127 -0.5473137450218202
v -0.1253301766479984 1.5514055033764127 -0.7350637269020082
v -0.13389186052626342 1.7389605406877418 -0.7350637269020082
v -0.13389186052626342 1.7389605406877418 -0.5473137450218202
v -0.1257023213387967 1.551389255188314 -0.7350637269020082
v -0.1257023213387967 1.551389255188314 -0.5473137450218202
v -0.13389186052626342 1.7389605406877418 -0.7350637269020082
v -0.13351971583546512 1.7389767888758405 -0.7350637269020082
v -0.13389186052626342 1.7389605406877418 -0.5473137450218202
v -0.13351971583546512 1.7389767888758405 -0.5473137450218202
v -0.1257023213387967 1.551389255188314 -0.5473137450218202
v -0.1253301766479984 1.5514055033764127 -0.5473137450218202
v -0.1257023213387967 1.551389255188314 -0.7350637269020082
v -0.1253301766479984 1.5514055033764127 -0.7350637269020082
v -0.13389186052626342 1.7389605406877418 -0.5473137450218202
v -0.13351971583546512 1.7389767888758405 -0.5473137450218202
v -0.1257023213387967 1.551389255188314 -0.5473137450218202
v -0.1253301766479984 1.5514055033764127 -0.5473137450218202
v -0.13351971583546512 1.7389767888758405 -0.7350637269020082
v -0.13389186052626342 1.7389605406877418 -0.7350637269020082
v -0.1253301766479984 1.5514055033764127 -0.7350637269020082
v -0.1257023213387967 1.551389255188314 -0.7350637269020082
vt 0.4453125 0.546875
vt 0.4296875 0.546875
vt 0.4453125 0.53125
vt 0.4296875 0.53125
vt 0.4609375 0.546875
vt 0.4453125 0.546875
vt 0.4609375 0.53125
vt 0.4453125 0.53125
vt 0 1
vt 0 1
vt 0 0.984375
vt 0 0.984375
vt 0 0.984375
vt 0 0.984375
vt 0 1
vt 0 1
vt 0 1
vt 0 1
vt 0 0.984375
vt 0 0.984375
vt 0 1
vt 0 1
vt 0 0.984375
vt 0 0.984375
vn 0.9990482215818578 0.043619387365336 0
vn 0.9990482215818578 0.043619387365336 0
vn 0.9990482215818578 0.043619387365336 0
vn 0.9990482215818578 0.043619387365336 0
vn -0.9990482215818578 -0.043619387365336 0
vn -0.9990482215818578 -0.043619387365336 0
vn -0.9990482215818578 -0.043619387365336 0
vn -0.9990482215818578 -0.043619387365336 0
vn -0.043619387365336 0.9990482215818578 0
vn -0.043619387365336 0.9990482215818578 0
vn -0.043619387365336 0.9990482215818578 0
vn -0.043619387365336 0.9990482215818578 0
vn 0.043619387365336 -0.9990482215818578 0
vn 0.043619387365336 -0.9990482215818578 0
vn 0.043619387365336 -0.9990482215818578 0
vn 0.043619387365336 -0.9990482215818578 0
vn 0 0 1
vn 0 0 1
vn 0 0 1
vn 0 0 1
vn 0 0 -1
vn 0 0 -1
vn 0 0 -1
vn 0 0 -1
f 289/289/289 291/291/291 290/290/290
f 291/291/291 292/292/292 290/290/290
f 293/293/293 295/295/295 294/294/294
f 295/295/295 296/296/296 294/294/294
f 297/297/297 299/299/299 298/298/298
f 299/299/299 300/300/300 298/298/298
f 301/301/301 303/303/303 302/302/302
f 303/303/303 304/304/304 302/302/302
f 305/305/305 307/307/307 306/306/306
f 307/307/307 308/308/308 306/306/306
f 309/309/309 311/311/311 310/310/310
f 311/311/311 312/312/312 310/310/310
o cube_13
usemtl material8
v 0.14062766672555915 1.1872209106978615 0.109375
v 0.14062766672555915 1.1872209106978615 -0.828125
v 0.1569849369875601 0.8125778276046648 0.109375
v 0.1569849369875601 0.8125778276046648 -0.828125
v -0.35889644406536975 1.1654112170151936 -0.828125
v -0.35889644406536975 1.1654112170151936 0.109375
v -0.34253917380336873 0.7907681339219967 -0.828125
v -0.34253917380336873 0.7907681339219967 0.109375
v -0.35889644406536975 1.1654112170151936 -0.828125
v 0.14062766672555915 1.1872209106978615 -0.828125
v -0.35889644406536975 1.1654112170151936 0.109375
v 0.14062766672555915 1.1872209106978615 0.109375
v -0.34253917380336873 0.7907681339219967 0.109375
v 0.1569849369875601 0.8125778276046648 0.109375
v -0.34253917380336873 0.7907681339219967 -0.828125
v 0.1569849369875601 0.8125778276046648 -0.828125
v -0.35889644406536975 1.1654112170151936 0.109375
v 0.14062766672555915 1.1872209106978615 0.109375
v -0.34253917380336873 0.7907681339219967 0.109375
v 0.1569849369875601 0.8125778276046648 0.109375
v 0.14062766672555915 1.1872209106978615 -0.828125
v -0.35889644406536975 1.1654112170151936 -0.828125
v 0.1569849369875601 0.8125778276046648 -0.828125
v -0.34253917380336873 0.7907681339219967 -0.828125
vt 0.296875 0.671875
vt 0.4140625 0.671875
vt 0.296875 0.625
vt 0.4140625 0.625
vt 0.359375 0.90625
vt 0.4765625 0.90625
vt 0.359375 0.859375
vt 0.4765625 0.859375
vt 0.359375 0.671875
vt 0.296875 0.671875
vt 0.359375 0.7890625
vt 0.296875 0.7890625
vt 0.0625 0.6875
vt 0 0.6875
vt 0.0625 0.5703125
vt 0 0.5703125
vt 0.1640625 0.6171875
vt 0.2265625 0.6171875
vt 0.1640625 0.5703125
vt 0.2265625 0.5703125
vt 0.3515625 0.625
vt 0.4140625 0.625
vt 0.3515625 0.578125
vt 0.4140625 0.578125
vn 0.9990482215818578 0.043619387365336 0
vn 0.9990482215818578 0.043619387365336 0
vn 0.9990482215818578 0.043619387365336 0
vn 0.9990482215818578 0.043619387365336 0
vn -0.9990482215818578 -0.043619387365336 0
vn -0.9990482215818578 -0.043619387365336 0
vn -0.9990482215818578 -0.043619387365336 0
vn -0.9990482215818578 -0.043619387365336 0
vn -0.043619387365336 0.9990482215818578 0
vn -0.043619387365336 0.9990482215818578 0
vn -0.043619387365336 0.9990482215818578 0
vn -0.043619387365336 0.9990482215818578 0
vn 0.043619387365336 -0.9990482215818578 0
vn 0.043619387365336 -0.9990482215818578 0
vn 0.043619387365336 -0.9990482215818578 0
vn 0.043619387365336 -0.9990482215818578 0
vn 0 0 1
vn 0 0 1
vn 0 0 1
vn 0 0 1
vn 0 0 -1
vn 0 0 -1
vn 0 0 -1
vn 0 0 -1
f 313/313/313 315/315/315 314/314/314
f 315/315/315 316/316/316 314/314/314
f 317/317/317 319/319/319 318/318/318
f 319/319/319 320/320/320 318/318/318
f 321/321/321 323/323/323 322/322/322
f 323/323/323 324/324/324 322/322/322
f 325/325/325 327/327/327 326/326/326
f 327/327/327 328/328/328 326/326/326
f 329/329/329 331/331/331 330/330/330
f 331/331/331 332/332/332 330/330/330
f 333/333/333 335/335/335 334/334/334
f 335/335/335 336/336/336 334/334/334
o cube_14
usemtl material8
v 0.171907633624083 1.1886491785553521 0.14068752527236938
v 0.171907633624083 1.1886491785553521 -0.8594375252723694
v 0.17463929736264966 1.1260837927300713 0.14068752527236938
v 0.17463929736264966 1.1260837927300713 -0.8594375252723694
v -0.39018187043561603 1.1641078208091278 -0.8594375252723694
v -0.39018187043561603 1.1641078208091278 0.14068752527236938
v -0.38745020669704944 1.101542434983847 -0.8594375252723694
v -0.38745020669704944 1.101542434983847 0.14068752527236938
v -0.39018187043561603 1.1641078208091278 -0.8594375252723694
v 0.171907633624083 1.1886491785553521 -0.8594375252723694
v -0.39018187043561603 1.1641078208091278 0.14068752527236938
v 0.171907633624083 1.1886491785553521 0.14068752527236938
v -0.38745020669704944 1.101542434983847 0.14068752527236938
v 0.17463929736264966 1.1260837927300713 0.14068752527236938
v -0.38745020669704944 1.101542434983847 -0.8594375252723694
v 0.17463929736264966 1.1260837927300713 -0.8594375252723694
v -0.39018187043561603 1.1641078208091278 0.14068752527236938
v 0.171907633624083 1.1886491785553521 0.14068752527236938
v -0.38745020669704944 1.101542434983847 0.14068752527236938
v 0.17463929736264966 1.1260837927300713 0.14068752527236938
v 0.171907633624083 1.1886491785553521 -0.8594375252723694
v -0.39018187043561603 1.1641078208091278 -0.8594375252723694
v 0.17463929736264966 1.1260837927300713 -0.8594375252723694
v -0.38745020669704944 1.101542434983847 -0.8594375252723694
vt 0.4140625 0.5703125
vt 0.5390625 0.5703125
vt 0.4140625 0.5625
vt 0.5390625 0.5625
vt 0.4140625 0.5625
vt 0.5390625 0.5625
vt 0.4140625 0.5546875
vt 0.5390625 0.5546875
vt 0.296875 0.75
vt 0.2265625 0.75
vt 0.296875 0.875
vt 0.2265625 0.875
vt 0.296875 0.75
vt 0.2265625 0.75
vt 0.296875 0.625
vt 0.2265625 0.625
vt 0.453125 1
vt 0.5234375 1
vt 0.453125 0.9921875
vt 0.5234375 0.9921875
vt 0.4140625 0.5546875
vt 0.484375 0.5546875
vt 0.4140625 0.546875
vt 0.484375 0.546875
vn 0.9990482215818578 0.043619387365336 0
vn 0.9990482215818578 0.043619387365336 0
vn 0.9990482215818578 0.043619387365336 0
vn 0.9990482215818578 0.043619387365336 0
vn -0.9990482215818578 -0.043619387365336 0
vn -0.9990482215818578 -0.043619387365336 0
vn -0.9990482215818578 -0.043619387365336 0
vn -0.9990482215818578 -0.043619387365336 0
vn -0.043619387365336 0.9990482215818578 0
vn -0.043619387365336 0.9990482215818578 0
vn -0.043619387365336 0.9990482215818578 0
vn -0.043619387365336 0.9990482215818578 0
vn 0.043619387365336 -0.9990482215818578 0
vn 0.043619387365336 -0.9990482215818578 0
vn 0.043619387365336 -0.9990482215818578 0
vn 0.043619387365336 -0.9990482215818578 0
vn 0 0 1
vn 0 0 1
vn 0 0 1
vn 0 0 1
vn 0 0 -1
vn 0 0 -1
vn 0 0 -1
vn 0 0 -1
f 337/337/337 339/339/339 338/338/338
f 339/339/339 340/340/340 338/338/338
f 341/341/341 343/343/343 342/342/342
f 343/343/343 344/344/344 342/342/342
f 345/345/345 347/347/347 346/346/346
f 347/347/347 348/348/348 346/346/346
f 349/349/349 351/351/351 350/350/350
f 351/351/351 352/352/352 350/350/350
f 353/353/353 355/355/355 354/354/354
f 355/355/355 356/356/356 354/354/354
f 357/357/357 359/359/359 358/358/358
f 359/359/359 360/360/360 358/358/358
o cube_15
usemtl material8
v -0.3588964440653698 1.1654112170151936 -0.390625
v -0.3588964440653698 1.1654112170151936 -0.453125
v -0.3561702323550363 1.1029707031663274 -0.390625
v -0.3561702323550363 1.1029707031663274 -0.453125
v -0.6086584994608342 1.1545063701738596 -0.453125
v -0.6086584994608342 1.1545063701738596 -0.390625
v -0.6059322877505007 1.0920658563249934 -0.453125
v -0.6059322877505007 1.0920658563249934 -0.390625
v -0.6086584994608342 1.1545063701738596 -0.453125
v -0.3588964440653698 1.1654112170151936 -0.453125
v -0.6086584994608342 1.1545063701738596 -0.390625
v -0.3588964440653698 1.1654112170151936 -0.390625
v -0.6059322877505007 1.0920658563249934 -0.390625
v -0.3561702323550363 1.1029707031663274 -0.390625
v -0.6059322877505007 1.0920658563249934 -0.453125
v -0.3561702323550363 1.1029707031663274 -0.453125
v -0.6086584994608342 1.1545063701738596 -0.390625
v -0.3588964440653698 1.1654112170151936 -0.390625
v -0.6059322877505007 1.0920658563249934 -0.390625
v -0.3561702323550363 1.1029707031663274 -0.390625
v -0.3588964440653698 1.1654112170151936 -0.453125
v -0.6086584994608342 1.1545063701738596 -0.453125
v -0.3561702323550363 1.1029707031663274 -0.453125
v -0.6059322877505007 1.0920658563249934 -0.453125
vt 0.3359375 0.5390625
vt 0.34375 0.5390625
vt 0.3359375 0.53125
vt 0.34375 0.53125
vt 0.4609375 0.6640625
vt 0.46875 0.6640625
vt 0.4609375 0.65625
vt 0.46875 0.65625
vt 0.4921875 0.8515625
vt 0.4609375 0.8515625
vt 0.4921875 0.859375
vt 0.4609375 0.859375
vt 0.4921875 0.8515625
vt 0.4609375 0.8515625
vt 0.4921875 0.84375
vt 0.4609375 0.84375
vt 0.0859375 0.5390625
vt 0.1171875 0.5390625
vt 0.0859375 0.53125
vt 0.1171875 0.53125
vt 0 0.5390625
vt 0.03125 0.5390625
vt 0 0.53125
vt 0.03125 0.53125
vn 0.9990482215818578 0.043619387365336 0
vn 0.9990482215818578 0.043619387365336 0
vn 0.9990482215818578 0.043619387365336 0
vn 0.9990482215818578 0.043619387365336 0
vn -0.9990482215818578 -0.043619387365336 0
vn -0.9990482215818578 -0.043619387365336 0
vn -0.9990482215818578 -0.043619387365336 0
vn -0.9990482215818578 -0.043619387365336 0
vn -0.043619387365336 0.9990482215818578 0
vn -0.043619387365336 0.9990482215818578 0
vn -0.043619387365336 0.9990482215818578 0
vn -0.043619387365336 0.9990482215818578 0
vn 0.043619387365336 -0.9990482215818578 0
vn 0.043619387365336 -0.9990482215818578 0
vn 0.043619387365336 -0.9990482215818578 0
vn 0.043619387365336 -0.9990482215818578 0
vn 0 0 1
vn 0 0 1
vn 0 0 1
vn 0 0 1
vn 0 0 -1
vn 0 0 -1
vn 0 0 -1
vn 0 0 -1
f 361/361/361 363/363/363 362/362/362
f 363/363/363 364/364/364 362/362/362
f 365/365/365 367/367/367 366/366/366
f 367/367/367 368/368/368 366/366/366
f 369/369/369 371/371/371 370/370/370
f 371/371/371 372/372/372 370/370/370
f 373/373/373 375/375/375 374/374/374
f 375/375/375 376/376/376 374/374/374
f 377/377/377 379/379/379 378/378/378
f 379/379/379 380/380/380 378/378/378
f 381/381/381 383/383/383 382/382/382
f 383/383/383 384/384/384 382/382/382
o cube_16
usemtl material8
v -0.6100216053160009 1.1857266270982925 -0.359375
v -0.6100216053160009 1.1857266270982925 -0.484375
v -0.6045691818953339 1.0608455994005603 -0.359375
v -0.6045691818953339 1.0608455994005603 -0.484375
v -0.6724621191648671 1.183000415387959 -0.484375
v -0.6724621191648671 1.183000415387959 -0.359375
v -0.6670096957442 1.0581193876902268 -0.484375
v -0.6670096957442 1.0581193876902268 -0.359375
v -0.6724621191648671 1.183000415387959 -0.484375
v -0.6100216053160009 1.1857266270982925 -0.484375
v -0.6724621191648671 1.183000415387959 -0.359375
v -0.6100216053160009 1.1857266270982925 -0.359375
v -0.6670096957442 1.0581193876902268 -0.359375
v -0.6045691818953339 1.0608455994005603 -0.359375
v -0.6670096957442 1.0581193876902268 -0.484375
v -0.6045691818953339 1.0608455994005603 -0.484375
v -0.6724621191648671 1.183000415387959 -0.359375
v -0.6100216053160009 1.1857266270982925 -0.359375
v -0.6670096957442 1.0581193876902268 -0.359375
v -0.6045691818953339 1.0608455994005603 -0.359375
v -0.6100216053160009 1.1857266270982925 -0.484375
v -0.6724621191648671 1.183000415387959 -0.484375
v -0.6045691818953339 1.0608455994005603 -0.484375
v -0.6670096957442 1.0581193876902268 -0.484375
vt 0.4609375 0.84375
vt 0.4765625 0.84375
vt 0.4609375 0.828125
vt 0.4765625 0.828125
vt 0.4609375 0.828125
vt 0.4765625 0.828125
vt 0.4609375 0.8125
vt 0.4765625 0.8125
vt 0.328125 0.5234375
vt 0.3203125 0.5234375
vt 0.328125 0.5390625
vt 0.3203125 0.5390625
vt 0.3359375 0.5390625
vt 0.328125 0.5390625
vt 0.3359375 0.5234375
vt 0.328125 0.5234375
vt 0.4609375 0.6875
vt 0.46875 0.6875
vt 0.4609375 0.671875
vt 0.46875 0.671875
vt 0.21875 0.5390625
vt 0.2265625 0.5390625
vt 0.21875 0.5234375
vt 0.2265625 0.5234375
vn 0.9990482215818578 0.043619387365336 0
vn 0.9990482215818578 0.043619387365336 0
vn 0.9990482215818578 0.043619387365336 0
vn 0.9990482215818578 0.043619387365336 0
vn -0.9990482215818578 -0.043619387365336 0
vn -0.9990482215818578 -0.043619387365336 0
vn -0.9990482215818578 -0.043619387365336 0
vn -0.9990482215818578 -0.043619387365336 0
vn -0.043619387365336 0.9990482215818578 0
vn -0.043619387365336 0.9990482215818578 0
vn -0.043619387365336 0.9990482215818578 0
vn -0.043619387365336 0.9990482215818578 0
vn 0.043619387365336 -0.9990482215818578 0
vn 0.043619387365336 -0.9990482215818578 0
vn 0.043619387365336 -0.9990482215818578 0
vn 0.043619387365336 -0.9990482215818578 0
vn 0 0 1
vn 0 0 1
vn 0 0 1
vn 0 0 1
vn 0 0 -1
vn 0 0 -1
vn 0 0 -1
vn 0 0 -1
f 385/385/385 387/387/387 386/386/386
f 387/387/387 388/388/388 386/386/386
f 389/389/389 391/391/391 390/390/390
f 391/391/391 392/392/392 390/390/390
f 393/393/393 395/395/395 394/394/394
f 395/395/395 396/396/396 394/394/394
f 397/397/397 399/399/399 398/398/398
f 399/399/399 400/400/400 398/398/398
f 401/401/401 403/403/403 402/402/402
f 403/403/403 404/404/404 402/402/402
f 405/405/405 407/407/407 406/406/406
f 407/407/407 408/408/408 406/406/406
o cube_17
usemtl material8
v 0.890625 1.062218125 0.421875
v 0.890625 1.062218125 0.171875
v 0.890625 0.687218125 0.421875
v 0.890625 0.687218125 0.171875
v 0.390625 1.062218125 0.171875
v 0.390625 1.062218125 0.421875
v 0.390625 0.687218125 0.171875
v 0.390625 0.687218125 0.421875
v 0.390625 1.062218125 0.171875
v 0.890625 1.062218125 0.171875
v 0.390625 1.062218125 0.421875
v 0.890625 1.062218125 0.421875
v 0.390625 0.687218125 0.421875
v 0.890625 0.687218125 0.421875
v 0.390625 0.687218125 0.171875
v 0.890625 0.687218125 0.171875
v 0.390625 1.062218125 0.421875
v 0.890625 1.062218125 0.421875
v 0.390625 0.687218125 0.421875
v 0.890625 0.687218125 0.421875
v 0.890625 1.062218125 0.171875
v 0.390625 1.062218125 0.171875
v 0.890625 0.687218125 0.171875
v 0.390625 0.687218125 0.171875
vt 0.2265625 0.578125
vt 0.2578125 0.578125
vt 0.2265625 0.53125
vt 0.2578125 0.53125
vt 0.2578125 0.578125
vt 0.2890625 0.578125
vt 0.2578125 0.53125
vt 0.2890625 0.53125
vt 0.1328125 0.734375
vt 0.0703125 0.734375
vt 0.1328125 0.765625
vt 0.0703125 0.765625
vt 0.125 0.59375
vt 0.0625 0.59375
vt 0.125 0.5625
vt 0.0625 0.5625
vt 0.359375 0.734375
vt 0.421875 0.734375
vt 0.359375 0.6875
vt 0.421875 0.6875
vt 0.0703125 0.8125
vt 0.1328125 0.8125
vt 0.0703125 0.765625
vt 0.1328125 0.765625
vn 1 0 0
vn 1 0 0
vn 1 0 0
vn 1 0 0
vn -1 0 0
vn -1 0 0
vn -1 0 0
vn -1 0 0
vn 0 1 0
vn 0 1 0
vn 0 1 0
vn 0 1 0
vn 0 -1 0
vn 0 -1 0
vn 0 -1 0
vn 0 -1 0
vn 0 0 1
vn 0 0 1
vn 0 0 1
vn 0 0 1
vn 0 0 -1
vn 0 0 -1
vn 0 0 -1
vn 0 0 -1
f 409/409/409 411/411/411 410/410/410
f 411/411/411 412/412/412 410/410/410
f 413/413/413 415/415/415 414/414/414
f 415/415/415 416/416/416 414/414/414
f 417/417/417 419/419/419 418/418/418
f 419/419/419 420/420/420 418/418/418
f 421/421/421 423/423/423 422/422/422
f 423/423/423 424/424/424 422/422/422
f 425/425/425 427/427/427 426/426/426
f 427/427/427 428/428/428 426/426/426
f 429/429/429 431/431/431 430/430/430
f 431/431/431 432/432/432 430/430/430
o cube_18
usemtl material8
v 0.6406875252723694 0.6872806502723694 0.609437495470047
v 0.6406875252723694 0.6872806502723694 0.23431247472763062
v 0.6406875252723694 0.6871555997276306 0.609437495470047
v 0.6406875252723694 0.6871555997276306 0.23431247472763062
v 0.1405624999970314 0.6872806502723694 0.23431247472763062
v 0.1405624999970314 0.6872806502723694 0.609437495470047
v 0.1405624999970314 0.6871555997276306 0.23431247472763062
v 0.1405624999970314 0.6871555997276306 0.609437495470047
v 0.1405624999970314 0.6872806502723694 0.23431247472763062
v 0.6406875252723694 0.6872806502723694 0.23431247472763062
v 0.1405624999970314 0.6872806502723694 0.609437495470047
v 0.6406875252723694 0.6872806502723694 0.609437495470047
v 0.1405624999970314 0.6871555997276306 0.609437495470047
v 0.6406875252723694 0.6871555997276306 0.609437495470047
v 0.1405624999970314 0.6871555997276306 0.23431247472763062
v 0.6406875252723694 0.6871555997276306 0.23431247472763062
v 0.1405624999970314 0.6872806502723694 0.609437495470047
v 0.6406875252723694 0.6872806502723694 0.609437495470047
v 0.1405624999970314 0.6871555997276306 0.609437495470047
v 0.6406875252723694 0.6871555997276306 0.609437495470047
v 0.6406875252723694 0.6872806502723694 0.23431247472763062
v 0.1405624999970314 0.6872806502723694 0.23431247472763062
v 0.6406875252723694 0.6871555997276306 0.23431247472763062
v 0.1405624999970314 0.6871555997276306 0.23431247472763062
vt 0 1
vt 0.046875 1
vt 0 1
vt 0.046875 1
vt 0 1
vt 0.046875 1
vt 0 1
vt 0.046875 1
vt 0.2890625 0.578125
vt 0.2265625 0.578125
vt 0.2890625 0.625
vt 0.2265625 0.625
vt 0.3515625 0.625
vt 0.2890625 0.625
vt 0.3515625 0.578125
vt 0.2890625 0.578125
vt 0 1
vt 0.0625 1
vt 0 1
vt 0.0625 1
vt 0 1
vt 0.0625 1
vt 0 1
vt 0.0625 1
vn 1 0 0
vn 1 0 0
vn 1 0 0
vn 1 0 0
vn -1 0 0
vn -1 0 0
vn -1 0 0
vn -1 0 0
vn 0 1 0
vn 0 1 0
vn 0 1 0
vn 0 1 0
vn 0 -1 0
vn 0 -1 0
vn 0 -1 0
vn 0 -1 0
vn 0 0 1
vn 0 0 1
vn 0 0 1
vn 0 0 1
vn 0 0 -1
vn 0 0 -1
vn 0 0 -1
vn 0 0 -1
f 433/433/433 435/435/435 434/434/434
f 435/435/435 436/436/436 434/434/434
f 437/437/437 439/439/439 438/438/438
f 439/439/439 440/440/440 438/438/438
f 441/441/441 443/443/443 442/442/442
f 443/443/443 444/444/444 442/442/442
f 445/445/445 447/447/447 446/446/446
f 447/447/447 448/448/448 446/446/446
f 449/449/449 451/451/451 450/450/450
f 451/451/451 452/452/452 450/450/450
f 453/453/453 455/455/455 454/454/454
f 455/455/455 456/456/456 454/454/454
o cube_19
usemtl material8
v 0.890625 1.062218125 -0.890625
v 0.890625 1.062218125 -1.140625
v 0.890625 0.687218125 -0.890625
v 0.890625 0.687218125 -1.140625
v 0.390625 1.062218125 -1.140625
v 0.390625 1.062218125 -0.890625
v 0.390625 0.687218125 -1.140625
v 0.390625 0.687218125 -0.890625
v 0.390625 1.062218125 -1.140625
v 0.890625 1.062218125 -1.140625
v 0.390625 1.062218125 -0.890625
v 0.890625 1.062218125 -0.890625
v 0.390625 0.687218125 -0.890625
v 0.890625 0.687218125 -0.890625
v 0.390625 0.687218125 -1.140625
v 0.890625 0.687218125 -1.140625
v 0.390625 1.062218125 -0.890625
v 0.890625 1.062218125 -0.890625
v 0.390625 0.687218125 -0.890625
v 0.890625 0.687218125 -0.890625
v 0.890625 1.062218125 -1.140625
v 0.390625 1.062218125 -1.140625
v 0.890625 0.687218125 -1.140625
v 0.390625 0.687218125 -1.140625
vt 0.2578125 0.578125
vt 0.2265625 0.578125
vt 0.2578125 0.53125
vt 0.2265625 0.53125
vt 0.2890625 0.578125
vt 0.2578125 0.578125
vt 0.2890625 0.53125
vt 0.2578125 0.53125
vt 0.1328125 0.765625
vt 0.0703125 0.765625
vt 0.1328125 0.734375
vt 0.0703125 0.734375
vt 0.125 0.5625
vt 0.0625 0.5625
vt 0.125 0.59375
vt 0.0625 0.59375
vt 0.1328125 0.8125
vt 0.0703125 0.8125
vt 0.1328125 0.765625
vt 0.0703125 0.765625
vt 0.421875 0.734375
vt 0.359375 0.734375
vt 0.421875 0.6875
vt 0.359375 0.6875
vn 1 0 0
vn 1 0 0
vn 1 0 0
vn 1 0 0
vn -1 0 0
vn -1 0 0
vn -1 0 0
vn -1 0 0
vn 0 1 0
vn 0 1 0
vn 0 1 0
vn 0 1 0
vn 0 -1 0
vn 0 -1 0
vn 0 -1 0
vn 0 -1 0
vn 0 0 1
vn 0 0 1
vn 0 0 1
vn 0 0 1
vn 0 0 -1
vn 0 0 -1
vn 0 0 -1
vn 0 0 -1
f 457/457/457 459/459/459 458/458/458
f 459/459/459 460/460/460 458/458/458
f 461/461/461 463/463/463 462/462/462
f 463/463/463 464/464/464 462/462/462
f 465/465/465 467/467/467 466/466/466
f 467/467/467 468/468/468 466/466/466
f 469/469/469 471/471/471 470/470/470
f 471/471/471 472/472/472 470/470/470
f 473/473/473 475/475/475 474/474/474
f 475/475/475 476/476/476 474/474/474
f 477/477/477 479/479/479 478/478/478
f 479/479/479 480/480/480 478/478/478
o cube_20
usemtl material8
v 0.6406875252723694 0.6872806502723694 -0.9530624747276306
v 0.6406875252723694 0.6872806502723694 -1.328187495470047
v 0.6406875252723694 0.6871555997276306 -0.9530624747276306
v 0.6406875252723694 0.6871555997276306 -1.328187495470047
v 0.1405624999970314 0.6872806502723694 -1.328187495470047
v 0.1405624999970314 0.6872806502723694 -0.9530624747276306
v 0.1405624999970314 0.6871555997276306 -1.328187495470047
v 0.1405624999970314 0.6871555997276306 -0.9530624747276306
v 0.1405624999970314 0.6872806502723694 -1.328187495470047
v 0.6406875252723694 0.6872806502723694 -1.328187495470047
v 0.1405624999970314 0.6872806502723694 -0.9530624747276306
v 0.6406875252723694 0.6872806502723694 -0.9530624747276306
v 0.1405624999970314 0.6871555997276306 -0.9530624747276306
v 0.6406875252723694 0.6871555997276306 -0.9530624747276306
v 0.1405624999970314 0.6871555997276306 -1.328187495470047
v 0.6406875252723694 0.6871555997276306 -1.328187495470047
v 0.1405624999970314 0.6872806502723694 -0.9530624747276306
v 0.6406875252723694 0.6872806502723694 -0.9530624747276306
v 0.1405624999970314 0.6871555997276306 -0.9530624747276306
v 0.6406875252723694 0.6871555997276306 -0.9530624747276306
v 0.6406875252723694 0.6872806502723694 -1.328187495470047
v 0.1405624999970314 0.6872806502723694 -1.328187495470047
v 0.6406875252723694 0.6871555997276306 -1.328187495470047
v 0.1405624999970314 0.6871555997276306 -1.328187495470047
vt 0.046875 1
vt 0 1
vt 0.046875 1
vt 0 1
vt 0.046875 1
vt 0 1
vt 0.046875 1
vt 0 1
vt 0.2890625 0.625
vt 0.2265625 0.625
vt 0.2890625 0.578125
vt 0.2265625 0.578125
vt 0.3515625 0.578125
vt 0.2890625 0.578125
vt 0.3515625 0.625
vt 0.2890625 0.625
vt 0.0625 1
vt 0 1
vt 0.0625 1
vt 0 1
vt 0.0625 1
vt 0 1
vt 0.0625 1
vt 0 1
vn 1 0 0
vn 1 0 0
vn 1 0 0
vn 1 0 0
vn -1 0 0
vn -1 0 0
vn -1 0 0
vn -1 0 0
vn 0 1 0
vn 0 1 0
vn 0 1 0
vn 0 1 0
vn 0 -1 0
vn 0 -1 0
vn 0 -1 0
vn 0 -1 0
vn 0 0 1
vn 0 0 1
vn 0 0 1
vn 0 0 1
vn 0 0 -1
vn 0 0 -1
vn 0 0 -1
vn 0 0 -1
f 481/481/481 483/483/483 482/482/482
f 483/483/483 484/484/484 482/482/482
f 485/485/485 487/487/487 486/486/486
f 487/487/487 488/488/488 486/486/486
f 489/489/489 491/491/491 490/490/490
f 491/491/491 492/492/492 490/490/490
f 493/493/493 495/495/495 494/494/494
f 495/495/495 496/496/496 494/494/494
f 497/497/497 499/499/499 498/498/498
f 499/499/499 500/500/500 498/498/498
f 501/501/501 503/503/503 502/502/502
f 503/503/503 504/504/504 502/502/502
o cube_21
usemtl material8
v 0.26562499999999994 0.749718125 -0.640625
v 0.26562499999999994 0.749718125 -0.765625
v 0.26562499999999994 0.499718125 -0.640625
v 0.26562499999999994 0.499718125 -0.765625
v 0.14062499999999994 0.749718125 -0.765625
v 0.14062499999999994 0.749718125 -0.640625
v 0.14062499999999994 0.499718125 -0.765625
v 0.14062499999999994 0.499718125 -0.640625
v 0.14062499999999994 0.749718125 -0.765625
v 0.26562499999999994 0.749718125 -0.765625
v 0.14062499999999994 0.749718125 -0.640625
v 0.26562499999999994 0.749718125 -0.640625
v 0.14062499999999994 0.499718125 -0.640625
v 0.26562499999999994 0.499718125 -0.640625
v 0.14062499999999994 0.499718125 -0.765625
v 0.26562499999999994 0.499718125 -0.765625
v 0.14062499999999994 0.749718125 -0.640625
v 0.26562499999999994 0.749718125 -0.640625
v 0.14062499999999994 0.499718125 -0.640625
v 0.26562499999999994 0.499718125 -0.640625
v 0.26562499999999994 0.749718125 -0.765625
v 0.14062499999999994 0.749718125 -0.765625
v 0.26562499999999994 0.499718125 -0.765625
v 0.14062499999999994 0.499718125 -0.765625
vt 0.15625 0.5546875
vt 0.140625 0.5546875
vt 0.15625 0.5234375
vt 0.140625 0.5234375
vt 0.46875 0.9609375
vt 0.453125 0.9609375
vt 0.46875 0.9296875
vt 0.453125 0.9296875
vt 0.4140625 0.6875
vt 0.3984375 0.6875
vt 0.4140625 0.671875
vt 0.3984375 0.671875
vt 0.46875 0.71875
vt 0.453125 0.71875
vt 0.46875 0.734375
vt 0.453125 0.734375
vt 0.140625 0.5546875
vt 0.125 0.5546875
vt 0.140625 0.5234375
vt 0.125 0.5234375
vt 0.46875 0.9921875
vt 0.453125 0.9921875
vt 0.46875 0.9609375
vt 0.453125 0.9609375
vn 1 0 0
vn 1 0 0
vn 1 0 0
vn 1 0 0
vn -1 0 0
vn -1 0 0
vn -1 0 0
vn -1 0 0
vn 0 1 0
vn 0 1 0
vn 0 1 0
vn 0 1 0
vn 0 -1 0
vn 0 -1 0
vn 0 -1 0
vn 0 -1 0
vn 0 0 1
vn 0 0 1
vn 0 0 1
vn 0 0 1
vn 0 0 -1
vn 0 0 -1
vn 0 0 -1
vn 0 0 -1
f 505/505/505 507/507/507 506/506/506
f 507/507/507 508/508/508 506/506/506
f 509/509/509 511/511/511 510/510/510
f 511/511/511 512/512/512 510/510/510
f 513/513/513 515/515/515 514/514/514
f 515/515/515 516/516/516 514/514/514
f 517/517/517 519/519/519 518/518/518
f 519/519/519 520/520/520 518/518/518
f 521/521/521 523/523/523 522/522/522
f 523/523/523 524/524/524 522/522/522
f 525/525/525 527/527/527 526/526/526
f 527/527/527 528/528/528 526/526/526
o cube_22
usemtl material8
v 0.26562499999999994 0.499718125 -0.609375
v 0.26562499999999994 0.499718125 -0.796875
v 0.26562499999999994 0.187218125 -0.609375
v 0.26562499999999994 0.187218125 -0.796875
v 0.14062499999999994 0.499718125 -0.796875
v 0.14062499999999994 0.499718125 -0.609375
v 0.14062499999999994 0.187218125 -0.796875
v 0.14062499999999994 0.187218125 -0.609375
v 0.14062499999999994 0.499718125 -0.796875
v 0.26562499999999994 0.499718125 -0.796875
v 0.14062499999999994 0.499718125 -0.609375
v 0.26562499999999994 0.499718125 -0.609375
v 0.14062499999999994 0.187218125 -0.609375
v 0.26562499999999994 0.187218125 -0.609375
v 0.14062499999999994 0.187218125 -0.796875
v 0.26562499999999994 0.187218125 -0.796875
v 0.14062499999999994 0.499718125 -0.609375
v 0.26562499999999994 0.499718125 -0.609375
v 0.14062499999999994 0.187218125 -0.609375
v 0.26562499999999994 0.187218125 -0.609375
v 0.26562499999999994 0.499718125 -0.796875
v 0.14062499999999994 0.499718125 -0.796875
v 0.26562499999999994 0.187218125 -0.796875
v 0.14062499999999994 0.187218125 -0.796875
vt 0.0546875 0.5703125
vt 0.03125 0.5703125
vt 0.0546875 0.53125
vt 0.03125 0.53125
vt 0.1875 0.5703125
vt 0.1640625 0.5703125
vt 0.1875 0.53125
vt 0.1640625 0.53125
vt 0.0703125 0.546875
vt 0.0546875 0.546875
vt 0.0703125 0.5234375
vt 0.0546875 0.5234375
vt 0.0859375 0.5234375
vt 0.0703125 0.5234375
vt 0.0859375 0.546875
vt 0.0703125 0.546875
vt 0.203125 0.5703125
vt 0.1875 0.5703125
vt 0.203125 0.53125
vt 0.1875 0.53125
vt 0.21875 0.5703125
vt 0.203125 0.5703125
vt 0.21875 0.53125
vt 0.203125 0.53125
vn 1 0 0
vn 1 0 0
vn 1 0 0
vn 1 0 0
vn -1 0 0
vn -1 0 0
vn -1 0 0
vn -1 0 0
vn 0 1 0
vn 0 1 0
vn 0 1 0
vn 0 1 0
vn 0 -1 0
vn 0 -1 0
vn 0 -1 0
vn 0 -1 0
vn 0 0 1
vn 0 0 1
vn 0 0 1
vn 0 0 1
vn 0 0 -1
vn 0 0 -1
vn 0 0 -1
vn 0 0 -1
f 529/529/529 531/531/531 530/530/530
f 531/531/531 532/532/532 530/530/530
f 533/533/533 535/535/535 534/534/534
f 535/535/535 536/536/536 534/534/534
f 537/537/537 539/539/539 538/538/538
f 539/539/539 540/540/540 538/538/538
f 541/541/541 543/543/543 542/542/542
f 543/543/543 544/544/544 542/542/542
f 545/545/545 547/547/547 546/546/546
f 547/547/547 548/548/548 546/546/546
f 549/549/549 551/551/551 550/550/550
f 551/551/551 552/552/552 550/550/550
o cube_23
usemtl material8
v 0.26562499999999994 0.499718125 -0.484375
v 0.26562499999999994 0.499718125 -0.609375
v 0.26562499999999994 0.374718125 -0.484375
v 0.26562499999999994 0.374718125 -0.609375
v 0.20312499999999994 0.499718125 -0.609375
v 0.20312499999999994 0.499718125 -0.484375
v 0.20312499999999994 0.374718125 -0.609375
v 0.20312499999999994 0.374718125 -0.484375
v 0.20312499999999994 0.499718125 -0.609375
v 0.26562499999999994 0.499718125 -0.609375
v 0.20312499999999994 0.499718125 -0.484375
v 0.26562499999999994 0.499718125 -0.484375
v 0.20312499999999994 0.374718125 -0.484375
v 0.26562499999999994 0.374718125 -0.484375
v 0.20312499999999994 0.374718125 -0.609375
v 0.26562499999999994 0.374718125 -0.609375
v 0.20312499999999994 0.499718125 -0.484375
v 0.26562499999999994 0.499718125 -0.484375
v 0.20312499999999994 0.374718125 -0.484375
v 0.26562499999999994 0.374718125 -0.484375
v 0.26562499999999994 0.499718125 -0.609375
v 0.20312499999999994 0.499718125 -0.609375
v 0.26562499999999994 0.374718125 -0.609375
v 0.20312499999999994 0.374718125 -0.609375
vt 0.46875 0.71875
vt 0.453125 0.71875
vt 0.46875 0.703125
vt 0.453125 0.703125
vt 0.46875 0.703125
vt 0.453125 0.703125
vt 0.46875 0.6875
vt 0.453125 0.6875
vt 0.0703125 0.65625
vt 0.0625 0.65625
vt 0.0703125 0.640625
vt 0.0625 0.640625
vt 0.2265625 0.5546875
vt 0.21875 0.5546875
vt 0.2265625 0.5703125
vt 0.21875 0.5703125
vt 0.0703125 0.6875
vt 0.0625 0.6875
vt 0.0703125 0.671875
vt 0.0625 0.671875
vt 0.0703125 0.671875
vt 0.0625 0.671875
vt 0.0703125 0.65625
vt 0.0625 0.65625
vn 1 0 0
vn 1 0 0
vn 1 0 0
vn 1 0 0
vn -1 0 0
vn -1 0 0
vn -1 0 0
vn -1 0 0
vn 0 1 0
vn 0 1 0
vn 0 1 0
vn 0 1 0
vn 0 -1 0
vn 0 -1 0
vn 0 -1 0
vn 0 -1 0
vn 0 0 1
vn 0 0 1
vn 0 0 1
vn 0 0 1
vn 0 0 -1
vn 0 0 -1
vn 0 0 -1
vn 0 0 -1
f 553/553/553 555/555/555 554/554/554
f 555/555/555 556/556/556 554/554/554
f 557/557/557 559/559/559 558/558/558
f 559/559/559 560/560/560 558/558/558
f 561/561/561 563/563/563 562/562/562
f 563/563/563 564/564/564 562/562/562
f 565/565/565 567/567/567 566/566/566
f 567/567/567 568/568/568 566/566/566
f 569/569/569 571/571/571 570/570/570
f 571/571/571 572/572/572 570/570/570
f 573/573/573 575/575/575 574/574/574
f 575/575/575 576/576/576 574/574/574
o cube_24
usemtl material8
v 0.890625 1.499718125 0.171875
v 0.890625 1.499718125 -0.890625
v 0.890625 0.749718125 0.171875
v 0.890625 0.749718125 -0.890625
v 0.140625 1.499718125 -0.890625
v 0.140625 1.499718125 0.171875
v 0.140625 0.749718125 -0.890625
v 0.140625 0.749718125 0.171875
v 0.140625 1.499718125 -0.890625
v 0.890625 1.499718125 -0.890625
v 0.140625 1.499718125 0.171875
v 0.890625 1.499718125 0.171875
v 0.140625 0.749718125 0.171875
v 0.890625 0.749718125 0.171875
v 0.140625 0.749718125 -0.890625
v 0.890625 0.749718125 -0.890625
v 0.140625 1.499718125 0.171875
v 0.890625 1.499718125 0.171875
v 0.140625 0.749718125 0.171875
v 0.890625 0.749718125 0.171875
v 0.890625 1.499718125 -0.890625
v 0.140625 1.499718125 -0.890625
v 0.890625 0.749718125 -0.890625
v 0.140625 0.749718125 -0.890625
vt 0 1
vt 0.1328125 1
vt 0 0.90625
vt 0.1328125 0.90625
vt 0 0.90625
vt 0.1328125 0.90625
vt 0 0.8125
vt 0.1328125 0.8125
vt 0.2265625 0.8671875
vt 0.1328125 0.8671875
vt 0.2265625 1
vt 0.1328125 1
vt 0.2265625 0.8671875
vt 0.1328125 0.8671875
vt 0.2265625 0.734375
vt 0.1328125 0.734375
vt 0.296875 1
vt 0.390625 1
vt 0.296875 0.90625
vt 0.390625 0.90625
vt 0.0703125 0.734375
vt 0.1640625 0.734375
vt 0.0703125 0.640625
vt 0.1640625 0.640625
vn 1 0 0
vn 1 0 0
vn 1 0 0
vn 1 0 0
vn -1 0 0
vn -1 0 0
vn -1 0 0
vn -1 0 0
vn 0 1 0
vn 0 1 0
vn 0 1 0
vn 0 1 0
vn 0 -1 0
vn 0 -1 0
vn 0 -1 0
vn 0 -1 0
vn 0 0 1
vn 0 0 1
vn 0 0 1
vn 0 0 1
vn 0 0 -1
vn 0 0 -1
vn 0 0 -1
vn 0 0 -1
f 577/577/577 579/579/579 578/578/578
f 579/579/579 580/580/580 578/578/578
f 581/581/581 583/583/583 582/582/582
f 583/583/583 584/584/584 582/582/582
f 585/585/585 587/587/587 586/586/586
f 587/587/587 588/588/588 586/586/586
f 589/589/589 591/591/591 590/590/590
f 591/591/591 592/592/592 590/590/590
f 593/593/593 595/595/595 594/594/594
f 595/595/595 596/596/596 594/594/594
f 597/597/597 599/599/599 598/598/598
f 599/599/599 600/600/600 598/598/598
o Coin
usemtl material8
v 0.546875 1.1875 -0.5625
v 0.546875 1.1875 -0.875
v 0.546875 1.125 -0.5625
v 0.546875 1.125 -0.875
v 0.234375 1.1875 -0.875
v 0.234375 1.1875 -0.5625
v 0.234375 1.125 -0.875
v 0.234375 1.125 -0.5625
v 0.234375 1.1875 -0.875
v 0.546875 1.1875 -0.875
v 0.234375 1.1875 -0.5625
v 0.546875 1.1875 -0.5625
v 0.234375 1.125 -0.5625
v 0.546875 1.125 -0.5625
v 0.234375 1.125 -0.875
v 0.546875 1.125 -0.875
v 0.234375 1.1875 -0.5625
v 0.546875 1.1875 -0.5625
v 0.234375 1.125 -0.5625
v 0.546875 1.125 -0.5625
v 0.546875 1.1875 -0.875
v 0.234375 1.1875 -0.875
v 0.546875 1.125 -0.875
v 0.234375 1.125 -0.875
vt 0.359375 0.6796875
vt 0.3984375 0.6796875
vt 0.359375 0.671875
vt 0.3984375 0.671875
vt 0.0859375 0.546875
vt 0.125 0.546875
vt 0.0859375 0.5390625
vt 0.125 0.5390625
vt 0.1640625 0.5546875
vt 0.125 0.5546875
vt 0.1640625 0.59375
vt 0.125 0.59375
vt 0.453125 0.609375
vt 0.4140625 0.609375
vt 0.453125 0.5703125
vt 0.4140625 0.5703125
vt 0.453125 0.9296875
vt 0.4921875 0.9296875
vt 0.453125 0.921875
vt 0.4921875 0.921875
vt 0.359375 0.6875
vt 0.3984375 0.6875
vt 0.359375 0.6796875
vt 0.3984375 0.6796875
vn 1 0 0
vn 1 0 0
vn 1 0 0
vn 1 0 0
vn -1 0 0
vn -1 0 0
vn -1 0 0
vn -1 0 0
vn 0 1 0
vn 0 1 0
vn 0 1 0
vn 0 1 0
vn 0 -1 0
vn 0 -1 0
vn 0 -1 0
vn 0 -1 0
vn 0 0 1
vn 0 0 1
vn 0 0 1
vn 0 0 1
vn 0 0 -1
vn 0 0 -1
vn 0 0 -1
vn 0 0 -1
f 601/601/601 603/603/603 602/602/602
f 603/603/603 604/604/604 602/602/602
f 605/605/605 607/607/607 606/606/606
f 607/607/607 608/608/608 606/606/606
f 609/609/609 611/611/611 610/610/610
f 611/611/611 612/612/612 610/610/610
f 613/613/613 615/615/615 614/614/614
f 615/615/615 616/616/616 614/614/614
f 617/617/617 619/619/619 618/618/618
f 619/619/619 620/620/620 618/618/618
f 621/621/621 623/623/623 622/622/622
f 623/623/623 624/624/624 622/622/622
o Bills
usemtl material8
v 0.609375 1.187562495470047 0.0625
v 0.609375 1.187562495470047 -0.3125
v 0.609375 1.1875 0.0625
v 0.609375 1.1875 -0.3125
v -0.203125 1.187562495470047 -0.3125
v -0.203125 1.187562495470047 0.0625
v -0.203125 1.1875 -0.3125
v -0.203125 1.1875 0.0625
v -0.203125 1.187562495470047 -0.3125
v 0.609375 1.187562495470047 -0.3125
v -0.203125 1.187562495470047 0.0625
v 0.609375 1.187562495470047 0.0625
v -0.203125 1.1875 0.0625
v 0.609375 1.1875 0.0625
v -0.203125 1.1875 -0.3125
v 0.609375 1.1875 -0.3125
v -0.203125 1.187562495470047 0.0625
v 0.609375 1.187562495470047 0.0625
v -0.203125 1.1875 0.0625
v 0.609375 1.1875 0.0625
v 0.609375 1.187562495470047 -0.3125
v -0.203125 1.187562495470047 -0.3125
v 0.609375 1.1875 -0.3125
v -0.203125 1.1875 -0.3125
vt 0 1
vt 0.046875 1
vt 0 1
vt 0.046875 1
vt 0 1
vt 0.046875 1
vt 0 1
vt 0.046875 1
vt 0.1640625 0.59375
vt 0.0625 0.59375
vt 0.1640625 0.640625
vt 0.0625 0.640625
vt 0.4609375 0.859375
vt 0.359375 0.859375
vt 0.4609375 0.8125
vt 0.359375 0.8125
vt 0 1
vt 0.1015625 1
vt 0 1
vt 0.1015625 1
vt 0 1
vt 0.1015625 1
vt 0 1
vt 0.1015625 1
vn 1 0 0
vn 1 0 0
vn 1 0 0
vn 1 0 0
vn -1 0 0
vn -1 0 0
vn -1 0 0
vn -1 0 0
vn 0 1 0
vn 0 1 0
vn 0 1 0
vn 0 1 0
vn 0 -1 0
vn 0 -1 0
vn 0 -1 0
vn 0 -1 0
vn 0 0 1
vn 0 0 1
vn 0 0 1
vn 0 0 1
vn 0 0 -1
vn 0 0 -1
vn 0 0 -1
vn 0 0 -1
f 625/625/625 627/627/627 626/626/626
f 627/627/627 628/628/628 626/626/626
f 629/629/629 631/631/631 630/630/630
f 631/631/631 632/632/632 630/630/630
f 633/633/633 635/635/635 634/634/634
f 635/635/635 636/636/636 634/634/634
f 637/637/637 639/639/639 638/638/638
f 639/639/639 640/640/640 638/638/638
f 641/641/641 643/643/643 642/642/642
f 643/643/643 644/644/644 642/642/642
f 645/645/645 647/647/647 646/646/646
f 647/647/647 648/648/648 646/646/646
o Bills_1
usemtl material8
v 0.609375 1.187562495470047 0.0625
v 0.609375 1.187562495470047 -0.3125
v 0.609375 1.1875 0.0625
v 0.609375 1.1875 -0.3125
v -0.203125 1.187562495470047 -0.3125
v -0.203125 1.187562495470047 0.0625
v -0.203125 1.1875 -0.3125
v -0.203125 1.1875 0.0625
v -0.203125 1.187562495470047 -0.3125
v 0.609375 1.187562495470047 -0.3125
v -0.203125 1.187562495470047 0.0625
v 0.609375 1.187562495470047 0.0625
v -0.203125 1.1875 0.0625
v 0.609375 1.1875 0.0625
v -0.203125 1.1875 -0.3125
v 0.609375 1.1875 -0.3125
v -0.203125 1.187562495470047 0.0625
v 0.609375 1.187562495470047 0.0625
v -0.203125 1.1875 0.0625
v 0.609375 1.1875 0.0625
v 0.609375 1.187562495470047 -0.3125
v -0.203125 1.187562495470047 -0.3125
v 0.609375 1.1875 -0.3125
v -0.203125 1.1875 -0.3125
vt 0 1
vt 0.046875 1
vt 0 1
vt 0.046875 1
vt 0 1
vt 0.046875 1
vt 0 1
vt 0.046875 1
vt 0.1640625 0.59375
vt 0.0625 0.59375
vt 0.1640625 0.640625
vt 0.0625 0.640625
vt 0.4609375 0.859375
vt 0.359375 0.859375
vt 0.4609375 0.8125
vt 0.359375 0.8125
vt 0 1
vt 0.1015625 1
vt 0 1
vt 0.1015625 1
vt 0 1
vt 0.1015625 1
vt 0 1
vt 0.1015625 1
vn 1 0 0
vn 1 0 0
vn 1 0 0
vn 1 0 0
vn -1 0 0
vn -1 0 0
vn -1 0 0
vn -1 0 0
vn 0 1 0
vn 0 1 0
vn 0 1 0
vn 0 1 0
vn 0 -1 0
vn 0 -1 0
vn 0 -1 0
vn 0 -1 0
vn 0 0 1
vn 0 0 1
vn 0 0 1
vn 0 0 1
vn 0 0 -1
vn 0 0 -1
vn 0 0 -1
vn 0 0 -1
f 649/649/649 651/651/651 650/650/650
f 651/651/651 652/652/652 650/650/650
f 653/653/653 655/655/655 654/654/654
f 655/655/655 656/656/656 654/654/654
f 657/657/657 659/659/659 658/658/658
f 659/659/659 660/660/660 658/658/658
f 661/661/661 663/663/663 662/662/662
f 663/663/663 664/664/664 662/662/662
f 665/665/665 667/667/667 666/666/666
f 667/667/667 668/668/668 666/666/666
f 669/669/669 671/671/671 670/670/670
f 671/671/671 672/672/672 670/670/670
o Bills_2
usemtl material8
v 0.609375 1.187562495470047 0.0625
v 0.609375 1.187562495470047 -0.3125
v 0.609375 1.1875 0.0625
v 0.609375 1.1875 -0.3125
v -0.203125 1.187562495470047 -0.3125
v -0.203125 1.187562495470047 0.0625
v -0.203125 1.1875 -0.3125
v -0.203125 1.1875 0.0625
v -0.203125 1.187562495470047 -0.3125
v 0.609375 1.187562495470047 -0.3125
v -0.203125 1.187562495470047 0.0625
v 0.609375 1.187562495470047 0.0625
v -0.203125 1.1875 0.0625
v 0.609375 1.1875 0.0625
v -0.203125 1.1875 -0.3125
v 0.609375 1.1875 -0.3125
v -0.203125 1.187562495470047 0.0625
v 0.609375 1.187562495470047 0.0625
v -0.203125 1.1875 0.0625
v 0.609375 1.1875 0.0625
v 0.609375 1.187562495470047 -0.3125
v -0.203125 1.187562495470047 -0.3125
v 0.609375 1.1875 -0.3125
v -0.203125 1.1875 -0.3125
vt 0 1
vt 0.046875 1
vt 0 1
vt 0.046875 1
vt 0 1
vt 0.046875 1
vt 0 1
vt 0.046875 1
vt 0.1640625 0.59375
vt 0.0625 0.59375
vt 0.1640625 0.640625
vt 0.0625 0.640625
vt 0.4609375 0.859375
vt 0.359375 0.859375
vt 0.4609375 0.8125
vt 0.359375 0.8125
vt 0 1
vt 0.1015625 1
vt 0 1
vt 0.1015625 1
vt 0 1
vt 0.1015625 1
vt 0 1
vt 0.1015625 1
vn 1 0 0
vn 1 0 0
vn 1 0 0
vn 1 0 0
vn -1 0 0
vn -1 0 0
vn -1 0 0
vn -1 0 0
vn 0 1 0
vn 0 1 0
vn 0 1 0
vn 0 1 0
vn 0 -1 0
vn 0 -1 0
vn 0 -1 0
vn 0 -1 0
vn 0 0 1
vn 0 0 1
vn 0 0 1
vn 0 0 1
vn 0 0 -1
vn 0 0 -1
vn 0 0 -1
vn 0 0 -1
f 673/673/673 675/675/675 674/674/674
f 675/675/675 676/676/676 674/674/674
f 677/677/677 679/679/679 678/678/678
f 679/679/679 680/680/680 678/678/678
f 681/681/681 683/683/683 682/682/682
f 683/683/683 684/684/684 682/682/682
f 685/685/685 687/687/687 686/686/686
f 687/687/687 688/688/688 686/686/686
f 689/689/689 691/691/691 690/690/690
f 691/691/691 692/692/692 690/690/690
f 693/693/693 695/695/695 694/694/694
f 695/695/695 696/696/696 694/694/694
o Coin_1
usemtl material8
v 0.546875 1.1875 -0.5625
v 0.546875 1.1875 -0.875
v 0.546875 1.125 -0.5625
v 0.546875 1.125 -0.875
v 0.234375 1.1875 -0.875
v 0.234375 1.1875 -0.5625
v 0.234375 1.125 -0.875
v 0.234375 1.125 -0.5625
v 0.234375 1.1875 -0.875
v 0.546875 1.1875 -0.875
v 0.234375 1.1875 -0.5625
v 0.546875 1.1875 -0.5625
v 0.234375 1.125 -0.5625
v 0.546875 1.125 -0.5625
v 0.234375 1.125 -0.875
v 0.546875 1.125 -0.875
v 0.234375 1.1875 -0.5625
v 0.546875 1.1875 -0.5625
v 0.234375 1.125 -0.5625
v 0.546875 1.125 -0.5625
v 0.546875 1.1875 -0.875
v 0.234375 1.1875 -0.875
v 0.546875 1.125 -0.875
v 0.234375 1.125 -0.875
vt 0.359375 0.6796875
vt 0.3984375 0.6796875
vt 0.359375 0.671875
vt 0.3984375 0.671875
vt 0.0859375 0.546875
vt 0.125 0.546875
vt 0.0859375 0.5390625
vt 0.125 0.5390625
vt 0.1640625 0.5546875
vt 0.125 0.5546875
vt 0.1640625 0.59375
vt 0.125 0.59375
vt 0.453125 0.609375
vt 0.4140625 0.609375
vt 0.453125 0.5703125
vt 0.4140625 0.5703125
vt 0.453125 0.9296875
vt 0.4921875 0.9296875
vt 0.453125 0.921875
vt 0.4921875 0.921875
vt 0.359375 0.6875
vt 0.3984375 0.6875
vt 0.359375 0.6796875
vt 0.3984375 0.6796875
vn 1 0 0
vn 1 0 0
vn 1 0 0
vn 1 0 0
vn -1 0 0
vn -1 0 0
vn -1 0 0
vn -1 0 0
vn 0 1 0
vn 0 1 0
vn 0 1 0
vn 0 1 0
vn 0 -1 0
vn 0 -1 0
vn 0 -1 0
vn 0 -1 0
vn 0 0 1
vn 0 0 1
vn 0 0 1
vn 0 0 1
vn 0 0 -1
vn 0 0 -1
vn 0 0 -1
vn 0 0 -1
f 697/697/697 699/699/699 698/698/698
f 699/699/699 700/700/700 698/698/698
f 701/701/701 703/703/703 702/702/702
f 703/703/703 704/704/704 702/702/702
f 705/705/705 707/707/707 706/706/706
f 707/707/707 708/708/708 706/706/706
f 709/709/709 711/711/711 710/710/710
f 711/711/711 712/712/712 710/710/710
f 713/713/713 715/715/715 714/714/714
f 715/715/715 716/716/716 714/714/714
f 717/717/717 719/719/719 718/718/718
f 719/719/719 720/720/720 718/718/718
